<svg width="28" height="28" xmlns="http://www.w3.org/2000/svg"><path d="M0 14.017C0 6.291 6.257.034 13.983.034c7.726 0 13.983 6.257 13.983 13.983C27.966 21.743 21.709 28 13.983 28 6.257 28 0 21.743 0 14.017zm21.243-5.17c-2.19-1.793-4.379-1.595-4.379-1.595l-.198.197c2.684.692 4.082 1.992 4.082 1.992-2.189-1.3-4.971-1.497-6.073-1.497h-.593c-1.2 0-3.983.296-6.074 1.497 0 0 1.399-1.3 4.082-1.992l-.197-.197s-2.19-.1-4.379 1.596c0 0-2.387 4.28-2.19 8.954 0 0 1.498 2.289 4.775 2.289l.988-1.3s-1.892-.593-2.683-1.794c0 0 2.288 1.596 5.777 1.695h.593c3.489-.198 5.777-1.695 5.777-1.695-.791 1.2-2.684 1.794-2.684 1.794l.989 1.3c3.277-.1 4.774-2.289 4.774-2.289 0-4.675-2.387-8.954-2.387-8.954zm-9.746 7.571c-.89 0-1.596-.79-1.596-1.695 0-.89.692-1.695 1.596-1.695.89 0 1.596.791 1.596 1.695s-.706 1.695-1.596 1.695zm5.664 0c-.89 0-1.596-.79-1.596-1.695 0-.89.692-1.695 1.596-1.695.89 0 1.596.791 1.596 1.695.099.89-.692 1.695-1.596 1.695z" fill="#1DB371" fill-rule="evenodd"/></svg>