<svg width="28" height="28" xmlns="http://www.w3.org/2000/svg"><path d="M13.986.027C6.262.027 0 6.29 0 14.014 0 21.738 6.262 28 13.986 28c7.725 0 13.987-6.262 13.987-13.986A13.959 13.959 0 0013.986.027zM6.282 8.403h15.41a.154.154 0 01.127.042l-7.83 6.527-7.83-6.527c.042 0 .083-.042.126-.042h-.003zm-.71 10.51v-9.79c0-.084.041-.126.041-.21l5.527 4.607-5.527 5.568c0-.042-.042-.125-.042-.167v-.007zm16.12.712H6.283a.251.251 0 01-.168-.043l5.611-5.61 2.052 1.718c.083.042.125.084.21.084a.319.319 0 00.21-.084l2.05-1.718 5.611 5.61c-.042 0-.126.043-.167.043h.002zm.712-.711a.252.252 0 01-.042.167l-5.57-5.569 5.528-4.606a.378.378 0 01.042.21v9.79l.042.008z" fill="#1DB371" fill-rule="evenodd"/></svg>