<svg width="28" height="28" xmlns="http://www.w3.org/2000/svg"><path d="M14 0C6.267 0 0 6.267 0 14s6.267 14 14 14 14-6.267 14-14S21.733 0 14 0zm7.12 11.317c-.079 5.976-3.9 10.07-9.604 10.326-2.353.108-4.057-.652-5.54-1.594 1.738.277 3.894-.418 5.047-1.405-1.704-.166-2.713-1.033-3.185-2.43a3.978 3.978 0 001.48-.036c-1.539-.514-2.637-1.465-2.694-3.457.432.197.882.381 1.48.418-1.152-.655-2.003-3.048-1.028-4.63 1.708 1.872 3.763 3.4 7.137 3.606-.847-3.62 3.951-5.584 5.96-3.15.848-.165 1.54-.487 2.204-.837-.274.84-.8 1.428-1.443 1.898.705-.095 1.33-.267 1.862-.53-.33.686-1.053 1.302-1.675 1.821z" fill="#1DB371" fill-rule="evenodd"/></svg>