<svg width="60" height="60" xmlns="http://www.w3.org/2000/svg"><g fill="none" fill-rule="evenodd"><rect fill="#FFF" width="60" height="60" rx="12"/><g fill-rule="nonzero"><path fill="#FED955" d="M19 26.333h-3.667v-3.667H19zM19 33.667h-3.667V30H19zM19 30h-3.667v-3.667H19z"/><path fill="#FED955" d="M19 37.333h-3.667v-3.667H19zM33.667 19H30v-3.667h3.667zM33.667 41H30v3.667h3.667z"/><path fill="#FED955" d="M37.333 19h-3.667v-3.667h3.667z"/><path fill="#9695F8" d="M41 19h-3.667v-3.667H41zM19 19h3.667v-3.667H19zM41 41h3.667v-3.667H41zM19 41h-3.667v-3.667H19zM37.333 15.333h-3.667v-3.667h3.667z"/><path fill="#5552FD" d="M37.333 11.667h-3.667V8h3.667zM37.333 52h-3.667v-3.667h3.667z"/><path fill="#9695F8" d="M37.333 48.333h-3.667v-3.667h3.667zM30 15.333h-3.667v-3.667H30z"/><path fill="#5552FD" d="M30 11.667h-3.667V8H30zM30 52h-3.667v-3.667H30z"/><path fill="#9695F8" d="M30 48.333h-3.667v-3.667H30zM33.667 15.333H30v-3.667h3.667z"/><path fill="#5552FD" d="M33.667 11.667H30V8h3.667zM33.667 52H30v-3.667h3.667z"/><path fill="#9695F8" d="M33.667 48.333H30v-3.667h3.667zM26.333 15.333h-3.667v-3.667h3.667z"/><path fill="#5552FD" d="M26.333 11.667h-3.667V8h3.667zM26.333 52h-3.667v-3.667h3.667z"/><path fill="#9695F8" d="M26.333 48.333h-3.667v-3.667h3.667zM44.667 22.667H41V19h3.667zM15.333 22.667H19V19h-3.667zM37.333 44.667H41V41h-3.667z"/><path fill="#9695F8" d="M22.667 44.667H19V41h3.667zM48.333 26.333h-3.667v-3.667h3.667zM15.333 26.333h-3.667v-3.667h3.667z"/><path fill="#5552FD" d="M11.667 26.333H8v-3.667h3.667z"/><path fill="#5552FD" d="M15.333 22.667h-3.667V19h3.667zM44.667 22.667h3.666V19h-3.666zM41 48.333h-3.667v-3.667H41zM11.666 41v-3.666h3.667V41zM19 19h-3.667v-3.667H19zM41 19h3.667v-3.667H41zM44.667 44.667H41V41h3.667zM15.333 44.667V41H19v3.667zM22.667 15.333H19v-3.667h3.667zM37.333 15.333H41v-3.666h-3.667zM48.333 41h-3.667v-3.667h3.667zM19 48.333v-3.667h3.666v3.667zM52 26.333h-3.667v-3.667H52z"/><path fill="#9695F8" d="M48.333 30h-3.667v-3.667h3.667zM15.333 30h-3.667v-3.667h3.667z"/><path fill="#5552FD" d="M11.667 30H8v-3.667h3.667zM52 30h-3.667v-3.667H52z"/><path fill="#9695F8" d="M48.333 33.667h-3.667V30h3.667zM15.333 33.667h-3.667V30h3.667z"/><path fill="#5552FD" d="M11.667 33.667H8V30h3.667zM52 33.667h-3.667V30H52z"/><path fill="#9695F8" d="M48.333 37.333h-3.667v-3.667h3.667zM15.333 37.333h-3.667v-3.667h3.667z"/><path fill="#5552FD" d="M11.667 37.333H8v-3.667h3.667zM52 37.333h-3.667v-3.667H52z"/><path fill="#FED955" d="M37.333 41h-3.667v3.667h3.667zM33.667 26.333H30v-3.667h3.667zM33.667 33.667H30V30h3.667z"/><path fill="#FED955" d="M33.667 37.333H30v-3.667h3.667zM33.667 22.667H30V19h3.667zM33.667 37.333H30V41h3.667zM26.333 33.667h-3.667V30h3.667zM26.333 30h-3.667v-3.667h3.667z"/><path fill="#FED955" d="M26.333 37.333h-3.667v-3.667h3.667zM26.333 22.667h-3.667V19h3.667zM26.333 37.333h-3.667V41h3.667zM37.333 33.667h-3.667V30h3.667zM37.333 30h-3.667v-3.667h3.667z"/><path fill="#FED955" d="M37.333 37.333h-3.667v-3.667h3.667zM37.333 22.667h-3.667V19h3.667zM37.333 37.333h-3.667V41h3.667zM30 19h-3.667v-3.667H30zM30 41h-3.667v3.667H30zM26.333 19h-3.667v-3.667h3.667zM26.333 41h-3.667v3.667h3.667zM30 26.333h-3.667v-3.667H30zM30 33.667h-3.667V30H30z"/><path fill="#5552FD" d="M26.333 26.333h-3.667v-3.667h3.667zM33.667 30H30v-3.667h3.667zM41 26.333h-3.667v-3.667H41zM41 33.667h-3.667V30H41zM41 30h-3.667v-3.667H41z"/><path fill="#5552FD" d="M41 37.333h-3.667v-3.667H41zM41 22.667h-3.667V19H41zM41 37.333h-3.667V41H41zM22.667 26.333H19v-3.667h3.667zM22.667 33.667H19V30h3.667zM22.667 30H19v-3.667h3.667z"/><path fill="#5552FD" d="M22.667 37.333H19v-3.667h3.667zM22.667 22.667H19V19h3.667zM22.667 37.333H19V41h3.667zM37.333 26.333h-3.667v-3.667h3.667zM30 30h-3.667v-3.667H30z"/><path fill="#FED955" d="M30 37.333h-3.667v-3.667H30zM30 22.667h-3.667V19H30zM30 37.333h-3.667V41H30zM44.667 26.333H41v-3.667h3.667zM44.667 33.667H41V30h3.667zM44.667 30H41v-3.667h3.667z"/><path fill="#FED955" d="M44.667 37.333H41v-3.667h3.667z"/></g></g></svg>