<svg width="60" height="60" xmlns="http://www.w3.org/2000/svg"><g fill="none" fill-rule="evenodd"><rect fill="#FFF" width="60" height="60" rx="12"/><g fill="#000" fill-rule="nonzero"><path d="M43.161 31.941l-.225 2.49-.397 2.473-.566 2.446-.022.07-.026.069-.03.067-.036.065-.04.063-.044.061-.049.059-.052.055-.055.052-.06.05-.063.045-.065.042-.069.039-1.382.672-1.426.594-1.464.514-1.497.431-1.524.347-1.545.262-1.56.175-1.54.082-.028.005h-1.572l-.027-.005-1.542-.082-1.56-.175-1.545-.262-1.524-.347-1.496-.431-1.465-.514-1.426-.594-1.382-.672-.068-.039-.066-.042-.063-.046-.059-.05-.056-.051-.052-.055-.048-.059-.045-.06-.04-.064-.035-.065-.03-.067-.027-.069-.021-.07-.567-2.446-.397-2.473-.225-2.49-.053-2.498.12-2.496.293-2.485L14.88 22l.018-.068.022-.067.018-.046.008-.02.03-.064.036-.062.508-.78.563-.75.617-.714.668-.677.282-.252.432-.385.76-.593.8-.549.839-.5.873-.45.904-.398.93-.344.954-.289.973-.233.987-.175.999-.118 1.004-.058H29.113l1.004.058.999.118.987.175.973.233.954.29.93.343.904.398.873.45.84.5.8.549.759.593.432.385.283.252.667.677.617.714.563.75.508.78.035.062.031.064.008.02.018.046.023.067.017.068.464 2.463.292 2.485.12 2.496-.053 2.498zm5.68-4.948l-.023-.214-.037-.21-.051-.21-.064-.206-.078-.201-.09-.196-.102-.191-.114-.184-.126-.177-.137-.17-.148-.16-.157-.151-.167-.142-.176-.131-.184-.12-.26-.15-.067-.044-.064-.047-.06-.052-.058-.055-.053-.058-.05-.061-.045-.065-.042-.067-.037-.07-.033-.07-.028-.073-.2-.518-.233-.504-.268-.488-.3-.47-.33-.451-.36-.429-.39-.405-.415-.378-.44-.353-.057-.045-.054-.048-.051-.05-.048-.054-.045-.056-.042-.059-.038-.06-.556-.88-.614-.842-.668-.803-.719-.76-.768-.715-.814-.665-.855-.614-.895-.56-.93-.504-.96-.445-.989-.385-1.011-.324-1.032-.26-1.045-.196-1.057-.131L29.142 11h-1.065l-1.063.066-1.058.131-1.045.196-1.031.26-1.012.324-.988.385-.961.445-.93.504-.894.56-.856.614-.813.665-.769.715-.719.76-.668.803-.614.843-.556.878-.038.061-.042.059-.045.056-.048.053-.05.051-.054.048-.057.045-.44.353-.416.378-.388.405-.36.429-.332.45-.3.47-.267.489-.234.504-.2.518-.027.073-.034.07-.037.07-.04.067-.047.065-.049.061-.054.058-.057.055-.061.052-.064.047-.066.044-.26.15-.184.12-.176.131-.168.142-.156.151-.149.16-.137.17-.125.177-.115.184-.102.19-.09.197-.077.201-.065.206-.05.21-.038.21-.023.214-.01.215.003.215.454 9.804.012.149.021.148.03.148.04.144.048.143.059.139.066.136.075.13.083.128.175.234.19.225.203.212.216.2.229.188.24.173.317.202.064.046.061.05.057.054.054.057.05.06.048.063.041.066.039.068.034.07.355.874.375.783c.278.501 6.553 5.123 6.553 5.123s3.258 1.486 10.05 1.486c6.791 0 10.049-1.486 10.049-1.486s6.275-4.622 6.553-5.123l.376-.783.355-.875.033-.07.039-.067.042-.066.047-.063.05-.06.054-.057.058-.054.06-.05.065-.046.317-.202.24-.173.228-.188.217-.2.203-.212.19-.225.175-.234.083-.127.075-.131.066-.136.058-.14.048-.142.04-.144.03-.148.022-.148.01-.15.456-9.803.003-.215-.01-.215z"/><path d="M36.05 31.804h-1.917a.435.435 0 00-.435.434v1.322c0 .24-.095.471-.265.642l-.122.122a.908.908 0 01-.643.265h-8.117a.908.908 0 01-.642-.265l-.122-.122a.909.909 0 01-.266-.642v-1.322a.435.435 0 00-.435-.434H21.17a.435.435 0 00-.434.434v1.917c0 .24.194.434.434.434h1.443a.908.908 0 01.908.908V36.9c0 .262.214.476.475.476h9.226a.477.477 0 00.476-.476v-1.402a.907.907 0 01.908-.908h1.443c.24 0 .435-.194.435-.434v-1.917a.435.435 0 00-.435-.434z"/></g></g></svg>