<svg width="60" height="60" xmlns="http://www.w3.org/2000/svg"><g fill="none" fill-rule="evenodd"><rect fill="#4BDB4B" width="60" height="60" rx="12"/><g fill-rule="nonzero"><path d="M30 57C15.15 57 3 44.85 3 30S15.15 3 30 3s27 12.15 27 27-12.15 27-27 27z" fill="#4BDB4B"/><path d="M45.702 35.284c1.35 2.475.45 5.625-1.8 6.975-2.475 1.35-5.625.45-6.975-1.8l-10.8-18.45c-1.35-2.475-.45-5.625 2.025-6.975 2.475-1.575 5.4-.675 6.975 1.8l10.575 18.45z" fill="#000" opacity=".4"/><path d="M24.484 40.459c-1.35 2.475-4.5 3.375-6.975 1.8-2.475-1.35-3.375-4.5-1.8-6.975l10.575-18.45c1.35-2.475 4.5-3.375 6.975-1.8 2.475 1.35 3.375 4.5 1.8 6.975l-10.575 18.45z" fill="#000" opacity=".65"/><path d="M35.737 19.425c0 2.925-5.175 10.125-5.175 10.125s-4.95-7.2-4.95-10.125 2.25-5.175 5.176-5.175c2.924 0 4.95 2.475 4.95 5.175z" fill="#000"/></g></g></svg>