<svg width="60" height="60" xmlns="http://www.w3.org/2000/svg"><defs><linearGradient x1="100%" y1="26.116%" x2="-5.285%" y2="66.689%" id="prefix__a"><stop stop-color="#FDCEAA" offset="0%"/><stop stop-color="#F4837D" offset="100%"/></linearGradient></defs><g fill="none" fill-rule="evenodd"><rect fill="#F9F1E7" width="60" height="60" rx="12"/><path fill="#FDCEAA" fill-rule="nonzero" d="M8.114 33.201l2.054 4.721 9.897 9.629-1.27-4.155zM29.986 32.748l.299 4.942 10.322 9.619.666-4.175z"/><path fill="url(#prefix__a)" fill-rule="nonzero" d="M.015 19.975L21.889.043l22.043 19.432-10.659 10.659-11.287-10.386-11.191 10.648z" transform="translate(8 13)"/><path d="M29.89 13.043L8.014 32.975M51.932 32.475L29.889 13.043M18.795 43.396l11.191-10.672M29.986 32.724l11.288 10.41M41.273 43.134l10.659-10.66M8.015 32.975l10.78 10.421M30.285 37.69l-10.22 9.86M40.607 47.309L30.285 37.69M50.382 37.459l-9.775 9.85M20.065 47.55l-9.897-9.628M8.015 32.975l2.153 4.946M50.382 37.458l1.55-4.983M29.986 32.724l.3 4.966M18.795 43.396l1.27 4.155M41.273 43.134l-.666 4.175" stroke="#27363B" stroke-linecap="round" stroke-linejoin="round"/><path fill="#27363B" fill-rule="nonzero" d="M18.795 43.396l1.27 4.155 10.22-9.861-.299-4.966zM41.273 43.134l-.666 4.175 9.775-9.851 1.3-4.734z"/></g></svg>