<svg width="60" height="60" xmlns="http://www.w3.org/2000/svg"><g fill="none" fill-rule="evenodd"><rect fill="#FFF" width="60" height="60" rx="12"/><g fill="#BA28FF"><path d="M45.075 16.275L33.524 9.52c-2.424-1.401-5.333-1.401-7.676 0l-11.554 6.838c-2.423 1.402-3.877 4.038-3.877 6.84V36.87c0 2.8 1.453 5.437 3.877 6.838l11.553 6.838c2.424 1.4 5.332 1.4 7.676 0l11.552-6.84c2.423-1.4 3.878-4.035 3.878-6.836V23.194c0-2.883-1.454-5.52-3.878-6.92v.001zm-5.655 19.36c-.403 5.108-4.524 9.145-9.614 9.145-5.09 0-9.21-3.954-9.614-9.063-3.635-.823-6.301-4.2-6.301-8.073 0-4.449 3.555-8.157 7.917-8.32.242 0 .566 0 .808.164l7.028 2.801 7.434-2.884c.161-.082.323-.082.484-.082h.485c4.12.412 7.352 3.954 7.352 8.238 0 3.872-2.423 7.085-5.979 8.074z" fill-rule="nonzero"/><path d="M29.69 25.847L37.363 23s3.764-.02 4.462 2.847c.7 2.88-.712 4.99-4.238 6.335-1.264 0-1.758.78-1.485 2.34.41 2.34-2.638 7.307-7.572 6.36-4.933-.948-5.224-4.673-5.224-6.36 0-1.687-1.252-2.34-2.226-2.34-.975 0-4.757-1.993-3.976-5.412.521-2.28 2.042-3.536 4.562-3.77l8.022 2.847zm-5.468 5.986c.929 0 1.682-.736 1.682-1.644 0-.908-.753-1.644-1.682-1.644-.93 0-1.682.736-1.682 1.644 0 .908.753 1.644 1.682 1.644zm10.934 0c.93 0 1.682-.736 1.682-1.644 0-.908-.753-1.644-1.682-1.644-.929 0-1.682.736-1.682 1.644 0 .908.753 1.644 1.682 1.644zm-6.518 3.107v1.36a.624.624 0 00.746.606.624.624 0 00.747-.606v-1.36l2.045-1.291a.608.608 0 00.188-.853.64.64 0 00-.872-.183l-2.108 1.33-2.107-1.33a.64.64 0 00-.872.183.608.608 0 00.187.853l2.046 1.291z"/></g></g></svg>