<svg width="60" height="60" xmlns="http://www.w3.org/2000/svg"><g fill="none" fill-rule="evenodd"><rect fill="#4958C5" width="60" height="60" rx="12"/><g transform="translate(3 3)" fill-rule="nonzero"><path d="M53.105 27c0 14.912-11.888 27-26.552 27C11.888 54 0 41.912 0 27S11.888 0 26.553 0c14.664 0 26.552 12.088 26.552 27z" fill="#4958C5"/><path d="M37.372 15.81h-7.255v-2.08c0-2.281 2.328-3.986 3.89-4.13 1.363-.125 2.102-.298 4.8.597V6.453c-1.847-.464-4.062-.398-5.907-.23-2.017.115-6.589 2.28-6.589 7.305v2.281h-2.67v3.408h2.67v12.85s-1.732-1.675-5.282-1.675c-4.941 0-9.315 3.87-9.315 9.414s4.061 9.524 9.429 9.524c5.367 0 9.115-4.673 9.229-9.524.114-4.851 0-10.367 0-10.367V19.217h7v-3.408z" fill="#FFF"/><ellipse fill="#4958C5" cx="21.178" cy="39.658" rx="5.453" ry="5.544"/></g></g></svg>