<svg width="60" height="60" xmlns="http://www.w3.org/2000/svg"><defs><linearGradient x1="7.033%" y1="27.782%" x2="99.351%" y2="80.355%" id="prefix__a"><stop stop-color="#EFC443" offset="0%"/><stop stop-color="#E69536" offset="100%"/></linearGradient></defs><g fill="none" fill-rule="evenodd"><rect fill="#FFF1D9" width="60" height="60" rx="12"/><path d="M37.843 45.314c-3.293 5.703-10.585 7.657-16.288 4.364-5.703-3.293-7.657-10.585-4.364-16.288 3.293-5.703 10.585-7.657 16.288-4.364 5.703 3.293 7.657 10.585 4.364 16.288zm-15.095 2.299a9.539 9.539 0 109.538-16.522 9.539 9.539 0 00-9.538 16.522z" fill="#482402"/><path d="M33.92 43.048a7.393 7.393 0 11-12.805-7.393 7.393 7.393 0 0112.804 7.393zm-8.907.641a5.008 5.008 0 105.008-8.674 5.008 5.008 0 00-5.008 8.674z" fill="#482402"/><path d="M30.78 33.7a6.527 6.527 0 10-6.526 11.304A6.527 6.527 0 0030.78 33.7zm-11.524.883a9.539 9.539 0 1116.522 9.538 9.539 9.539 0 01-13.03 3.492 9.539 9.539 0 01-3.492-13.03z" fill="#F6E6D2"/><path d="M47.167 19.626a7.122 7.122 0 01-3.226 2.932c-1.014.462-1.64 2.164-.969 3.053a16.754 16.754 0 013.267 11.897c-.073.667.376 1.288 1.004 1.526a5.962 5.962 0 11-5.09 10.74L15.2 34.214a5.962 5.962 0 116.756-9.779c.52.425 1.282.504 1.824.106a16.753 16.753 0 0111.935-3.119c1.106.136 2.268-1.256 2.16-2.365a7.122 7.122 0 01.927-4.26c1.975-3.422 5.158-2.529 8.58-.553 0 0 1.76 1.96-.216 5.382z" fill="#E89B37" fill-rule="nonzero"/><path d="M39.167 11.626a7.122 7.122 0 01-3.226 2.932c-1.014.462-1.64 2.164-.969 3.053a16.754 16.754 0 013.267 11.897c-.073.667.376 1.288 1.004 1.526a5.962 5.962 0 11-5.09 10.74L7.2 26.214a5.962 5.962 0 116.756-9.779c.52.425 1.282.504 1.824.106a16.753 16.753 0 0111.935-3.119c1.106.136 2.268-1.256 2.16-2.365a7.122 7.122 0 01.927-4.26c1.975-3.422 5.158-2.529 8.58-.553 0 0 1.76 1.96-.216 5.382z" fill="url(#prefix__a)" fill-rule="nonzero" transform="translate(8 8)"/><path d="M44.484 36.494a16.753 16.753 0 00-3.267-11.896l-.652 1.13c.985 4.7.185 4.788-.212 8.381-.073.668.376 1.289 1.004 1.527a5.962 5.962 0 11-5.09 10.74l4.13 2.385a5.962 5.962 0 105.09-10.74c-.627-.238-1.077-.86-1.003-1.527z" fill="#E28432" fill-rule="nonzero"/><path d="M42.953 20.388a4.77 4.77 0 10-6.73-3.886c.135 1.402-.503 2.656-1.213 3.459-.694.785-1.976 1.704-3.612 1.503a14.368 14.368 0 00-10.233 2.674c-1.562 1.147-3.528.812-4.743-.18a3.577 3.577 0 10-4.056 5.866l30.978 17.885a3.577 3.577 0 103.052-6.445c-1.467-.557-2.74-2.092-2.527-4.018a14.37 14.37 0 00-2.801-10.199c-.992-1.316-.838-2.887-.505-3.88.34-1.016 1.108-2.196 2.39-2.779zm.988 2.17a7.154 7.154 0 10-10.092-5.826c.107 1.109-1.054 2.501-2.16 2.365-4.223-.52-8.51.603-11.936 3.119-.541.398-1.304.319-1.824-.106a5.962 5.962 0 10-6.756 9.779l30.979 17.885a5.962 5.962 0 105.09-10.74c-.627-.238-1.077-.859-1.003-1.526a16.753 16.753 0 00-3.267-11.896c-.67-.89-.045-2.592.969-3.054z" fill="#482402"/><path d="M32.901 25.88a1.192 1.192 0 01-1.445.869c-.712-.178-2.018-.308-3.454-.052-1.422.254-2.904.872-4.08 2.127a1.192 1.192 0 01-1.74-1.632c1.612-1.717 3.608-2.523 5.401-2.843 1.78-.317 3.426-.17 4.45.086.639.159 1.028.806.868 1.445z" fill="#482402"/></g></svg>