<svg width="60" height="60" xmlns="http://www.w3.org/2000/svg"><defs><radialGradient cx="90.909%" cy="5%" fx="90.909%" fy="5%" r="101.936%" gradientTransform="scale(-1 -.55) rotate(-45 -.17 2.174)" id="prefix__a"><stop stop-color="#2CA9B7" offset="0%"/><stop stop-color="#2CA9B7" stop-opacity="0" offset="100%"/></radialGradient></defs><g fill="none" fill-rule="evenodd"><rect fill="#FFF" width="60" height="60" rx="12"/><g transform="rotate(45 5.313 40.226)" fill="url(#prefix__a)"><path d="M15.274-.016a10.058 10.058 0 01.526 0h-.526zm.263 31.09a1.554 1.554 0 010-3.108c6.86 0 12.43-5.57 12.43-12.43h3.106c0 8.576-6.961 15.537-15.536 15.537z"/><path d="M-.016 15.8a10.058 10.058 0 010-.526v.526zm31.09-.263a1.554 1.554 0 01-3.108 0c0-6.86-5.57-12.43-12.43-12.43V0c8.576 0 15.537 6.962 15.537 15.537z"/><path d="M15.8 31.09a10.058 10.058 0 01-.526 0h.526zM15.537 0a1.554 1.554 0 010 3.107c-6.86 0-12.43 5.57-12.43 12.43H0C0 6.962 6.962 0 15.537 0z"/><path d="M31.09 15.274a10.058 10.058 0 010 .526v-.526zM0 15.537a1.554 1.554 0 013.107 0c0 6.86 5.57 12.43 12.43 12.43v3.106C6.962 31.073 0 24.112 0 15.537z"/></g><g fill="#111"><path d="M51.068 29.97c0-.859-.697-1.555-1.554-1.555H47.96v3.107h1.568c.85 0 1.54-.69 1.54-1.54v-.013zm-.435-.002c0-.685-.557-1.242-1.243-1.242h-.995v2.486h.994c.687 0 1.244-.557 1.244-1.244zM42.367 28.415v3.107h3.108a.31.31 0 00-.311-.31h-2.3v-1.057h1.678v-.31h-1.678v-1.12h2.3a.31.31 0 00.31-.31h-3.107zM39.912 30.28a1.555 1.555 0 01-3.076-.311 1.554 1.554 0 013.076-.311h-.447a1.12 1.12 0 100 .621h.447zM33.915 30.9l-2.237-2.485-.01.009h-.425v3.107c.24 0 .435-.195.435-.435v-2.03l2.237 2.484.021-.019h.414v-3.107a.435.435 0 00-.435.435v2.04zM25.65 31.579l1.543-3.164.24.493 1.302 2.67h-.484l-.152-.31h-1.817l-.152.31h-.48zm.783-.622h1.515l-.757-1.552-.758 1.552zM20.056 31.522h3.108a.31.31 0 00-.31-.31h-2.362V28.85a.435.435 0 00-.436-.435v3.107zM14.525 31.579l1.544-3.164.24.493 1.302 2.67h-.484l-.152-.31h-1.817l-.152.31h-.48zm.784-.622h1.515l-.758-1.552-.757 1.552zM11.266 29.969h-.006c.43 0 .78-.35.78-.78a.774.774 0 00-.774-.774H8.932v3.107h2.328c.43 0 .78-.35.78-.78a.774.774 0 00-.774-.773zm.339.716a.53.53 0 00-.53-.53H9.367v1.057h1.71c.292 0 .528-.236.528-.527zm0-1.398a.561.561 0 00-.561-.561H9.367v1.118h1.68c.308 0 .558-.25.558-.557z"/></g></g></svg>