<svg width="60" height="60" xmlns="http://www.w3.org/2000/svg"><g fill="none" fill-rule="evenodd"><rect fill="#F6EFE5" width="60" height="60" rx="12"/><g fill-rule="nonzero"><path d="M29.826 52c-6.074-.098-11.424-2.317-15.73-6.831-4.274-4.48-6.293-9.89-6.05-16.072.231-5.884 2.516-10.92 6.772-14.982 4.49-4.283 9.907-6.315 16.104-6.069 5.899.234 10.943 2.532 15.006 6.808 4.26 4.483 6.279 9.888 6.033 16.065-.233 5.878-2.519 10.905-6.766 14.97-4.235 4.054-9.342 6.043-15.369 6.111zm.61-41.625c-4.206.03-7.71 1.02-10.907 3.042-2.929 1.853-5.212 4.318-6.847 7.372-1.463 2.73-2.245 5.655-2.293 8.747-.084 5.427 1.728 10.158 5.494 14.069 3.711 3.855 8.303 5.881 13.654 6.006 5.426.127 10.158-1.72 14.068-5.485 3.859-3.715 5.885-8.311 6.007-13.668.123-5.426-1.726-10.157-5.494-14.064-3.838-3.977-8.589-5.926-13.682-6.02z" fill="#C3BBAF"/><path d="M30.436 10.375c5.093.093 9.844 2.042 13.681 6.02 3.768 3.906 5.618 8.638 5.493 14.064-.121 5.356-2.148 9.952-6.006 13.668-3.909 3.764-8.643 5.611-14.068 5.484-5.351-.125-9.943-2.15-13.655-6.006-3.764-3.911-5.576-8.642-5.492-14.069.048-3.092.83-6.018 2.293-8.747 1.635-3.054 3.918-5.52 6.847-7.372 3.198-2.022 6.7-3.012 10.907-3.042zM23.005 21.79h-4.538c-.564 0-1.047.37-1.178.914a2.489 2.489 0 00-.064.574c0 .858.334 1.62.726 2.355.349.652.83 1.21 1.366 1.718.46.435.926.865 1.395 1.29.348.315.682.638.871 1.078.03.067.045.138.047.211.002 2.333-.004 4.666.007 7-.001.417.037.834.115 1.244.593 2.968 3.132 5.035 6.161 5.035 1.242 0 2.483.01 3.724-.006a7.526 7.526 0 001.323-.13c2.823-.546 4.95-3.112 4.965-5.99.012-2.394.002-4.79.007-7.184 0-.1.037-.205.08-.297.149-.32.384-.573.645-.808.477-.43.959-.855 1.417-1.304.354-.348.7-.71 1.004-1.1a5.82 5.82 0 00.904-1.628c.206-.571.366-1.137.31-1.759-.067-.727-.55-1.213-1.28-1.213h-3.904c0-.578.011-1.137-.002-1.695-.027-1.057-.513-1.843-1.442-2.348-.454-.246-.948-.296-1.457-.29a2.647 2.647 0 00-2.645 2.656v1.559c0 .038-.004.076-.006.112h-3.005c0-.58.006-1.152-.002-1.723a2.548 2.548 0 00-.733-1.786c-.728-.757-1.643-.942-2.632-.768-1.31.232-2.178 1.312-2.18 2.641v1.642z" fill="#F6EFE5"/><path d="M23.005 21.79v-1.643c0-1.33.87-2.41 2.179-2.64.99-.175 1.904.01 2.632.767.477.497.723 1.096.733 1.785.008.572.002 1.144.002 1.723h3.005c.002-.035.006-.073.006-.111v-1.56a2.647 2.647 0 012.645-2.655c.509-.006 1.004.045 1.456.29.93.505 1.416 1.29 1.442 2.348.014.558.003 1.117.003 1.695h3.905c.73 0 1.213.486 1.28 1.213.056.622-.104 1.19-.31 1.759a5.82 5.82 0 01-.905 1.632c-.306.39-.65.751-1.003 1.099-.459.449-.94.875-1.418 1.304-.26.235-.496.488-.645.808a.732.732 0 00-.08.297c-.004 2.395.006 4.79-.006 7.184-.014 2.878-2.142 5.444-4.965 5.99a7.526 7.526 0 01-1.323.13c-1.242.017-2.483.006-3.724.006-3.03 0-5.568-2.067-6.161-5.035a6.536 6.536 0 01-.115-1.245c-.011-2.333-.005-4.666-.008-6.999a.558.558 0 00-.046-.211c-.19-.44-.523-.763-.872-1.078-.47-.425-.934-.855-1.394-1.29-.536-.508-1.018-1.065-1.366-1.718-.393-.735-.726-1.497-.726-2.354-.001-.194.02-.387.063-.575a1.198 1.198 0 011.179-.914c1.461-.002 2.923-.002 4.384 0l.153-.002zm4.317 2.641h-4.777c-.308 0-.571.207-.611.508-.026.174-.023.351.007.525.106.535.338 1.019.71 1.416.373.398.778.751 1.156 1.137.286.29.467.636.467 1.063-.003 2.614-.003 5.228 0 7.843a3.593 3.593 0 003.617 3.645l3.736-.002a3.596 3.596 0 003.658-3.59c0-.436-.003-.873.003-1.308 0-.101-.028-.142-.125-.172a11.164 11.164 0 01-2.612-1.187c-1.875-1.166-3.312-2.727-4.243-4.739-.447-.965-.753-1.973-.86-3.032-.071-.693-.086-1.393-.126-2.107zm7.782 7.01a1.185 1.185 0 10-2.37-.03 1.185 1.185 0 002.37.03zm-8.402-9.654c0-.5-.024-.989.006-1.474.04-.649-.334-1.053-1.016-1.011-.497.03-.837.34-.838.838v1.544c0 .034.004.067.007.103h1.841zm8.555 0c0-.592.01-1.177-.004-1.76-.007-.329-.272-.623-.594-.69-.136-.028-.28-.026-.419-.026-.49 0-.827.338-.83.829V21.788h1.847z" fill="#000"/><path d="M27.322 24.431c.04.714.055 1.414.126 2.108.107 1.058.414 2.067.86 3.032.931 2.012 2.368 3.573 4.243 4.739.816.506 1.694.905 2.613 1.187.096.03.126.071.125.172-.007.436-.002.872-.003 1.308a3.596 3.596 0 01-3.658 3.59c-1.246.003-2.491.003-3.737.001a3.592 3.592 0 01-3.617-3.644c-.002-2.615-.002-5.23 0-7.843 0-.427-.18-.771-.466-1.063-.379-.386-.787-.743-1.156-1.137a2.86 2.86 0 01-.71-1.416 1.642 1.642 0 01-.008-.525c.04-.301.304-.508.61-.508h4.778zm.466 7a1.185 1.185 0 10-2.37-.01 1.185 1.185 0 002.37.01z" fill="#F6EFE5"/><path d="M35.104 31.44a1.185 1.185 0 11-2.37-.027 1.185 1.185 0 012.37.027z" fill="#FBFBFB"/><path d="M26.702 21.787h-1.841c-.003-.036-.007-.07-.007-.103V20.14c.001-.498.34-.808.838-.838.682-.042 1.057.362 1.016 1.01-.03.486-.006.976-.006 1.475zM35.257 21.786h-1.846v-.54-1.108c.002-.491.338-.829.829-.83.14 0 .283 0 .419.027.322.067.586.361.594.69.014.584.004 1.169.004 1.761z" fill="#F6EFE5"/><path d="M27.788 31.43a1.185 1.185 0 11-2.37-.007 1.185 1.185 0 012.37.008z" fill="#030303"/></g></g></svg>