<svg width="60" height="60" xmlns="http://www.w3.org/2000/svg"><g fill="none" fill-rule="evenodd"><rect fill="#298DCD" width="60" height="60" rx="12"/><g fill="#FFF" fill-rule="nonzero"><path d="M26.796 29.676c2.012-.396 3.688-2.318 3.688-5.031C30.47 21.714 28.409 19 24.282 19H11l2.062 2.714V41h11.683C28.875 41 31 38.352 31 35.039c-.077-2.725-1.897-5.042-4.204-5.363zm-9.155-6.543h5.74c1.548 0 2.513.93 2.513 2.318 0 1.387-.965 2.317-2.514 2.317h-5.739v-4.635zm5.93 13.776h-5.93v-5.06h5.93c1.743 0 2.709 1.127 2.709 2.518 0 1.588-1.033 2.517-2.709 2.517v.025zM49.797 22.776V19H33v4.107h10.549L33 37.224V41h17v-4.107H39.182z"/></g></g></svg>