<svg width="60" height="60" xmlns="http://www.w3.org/2000/svg" xmlns:xlink="http://www.w3.org/1999/xlink"><defs><path id="prefix__a" d="M0 .021h23.354v23.184H0z"/><path id="prefix__c" d="M.109.084h17.866v17.735H.109z"/></defs><g fill="none" fill-rule="evenodd"><rect fill="#FFF" width="60" height="60" rx="12"/><g transform="translate(9 11.109)"><mask id="prefix__b" fill="#fff"><use xlink:href="#prefix__a"/></mask><path d="M23.354 11.613c0 6.402-5.228 11.592-11.677 11.592S0 18.015 0 11.613 5.228.021 11.677.021c6.45 0 11.677 5.19 11.677 11.592" fill="#0D74F5" mask="url(#prefix__b)"/></g><path d="M50.08 21.941c0 4.238-3.46 7.674-7.73 7.674-4.269 0-7.73-3.436-7.73-7.674s3.461-7.674 7.73-7.674c4.27 0 7.73 3.436 7.73 7.674" fill="#4494F7"/><path d="M26.288 42.37c0 3.117-2.545 5.643-5.685 5.643-3.14 0-5.684-2.526-5.684-5.643 0-3.116 2.545-5.643 5.684-5.643 3.14 0 5.685 2.527 5.685 5.643" fill="#7ABDF7"/><g transform="translate(29.047 31.66)"><mask id="prefix__d" fill="#fff"><use xlink:href="#prefix__c"/></mask><path d="M17.975 8.952c0 4.897-4 8.867-8.933 8.867S.11 13.85.11 8.952c0-4.898 4-8.868 8.933-8.868 4.934 0 8.933 3.97 8.933 8.868" fill="#005CF4" mask="url(#prefix__d)"/></g></g></svg>