<svg width="60" height="60" xmlns="http://www.w3.org/2000/svg"><g fill="none" fill-rule="evenodd"><rect fill="#FFF" width="60" height="60" rx="12"/><path d="M30.97 8v17.272l.016.015c0 .048-.016.095-.016.158 0 1.99 1.605 3.6 3.592 3.6.048 0 .096-.016.16-.016l.015.016h17.2c.031 0 .063.031.063.063v1.8c0 .031-.032.063-.064.063H34.737l-.016.016c-.048 0-.095-.016-.159-.016a3.593 3.593 0 00-3.592 3.6v.047c0 .031.016.063.016.095l-.016.015v17.209c0 .031-.032.063-.064.063h-1.812c-.032 0-.064-.032-.064-.063V34.728l-.016-.015c0-.048.016-.095.016-.158 0-1.99-1.605-3.6-3.592-3.6-.048 0-.096.016-.16.016l-.015-.016h-17.2c-.031 0-.063-.031-.063-.063v-1.8c0-.031.032-.063.064-.063h17.215l.016-.016c.047 0 .095.016.159.016a3.593 3.593 0 003.592-3.6c0-.047-.016-.094-.016-.157l.016-.016V8" fill="#000" fill-rule="nonzero"/></g></svg>