<svg width="60" height="60" xmlns="http://www.w3.org/2000/svg"><path d="M49.044 0H10.957A10.922 10.922 0 000 10.956v38.088C0 55.122 4.88 60 10.957 60h38.086C55.035 60 60 55.122 60 49.044V10.956C60 4.878 55.12 0 49.043 0h.001zm-8.506 14.979c4.533 0 8.194 3.594 8.194 8.046 0 1.368-.35 2.652-.96 3.85-1.045-.769-2.178-1.454-3.399-1.882a3.93 3.93 0 00.524-1.968c0-2.311-1.919-4.194-4.273-4.194-2.355 0-4.272 1.883-4.272 4.194 0 .684.175 1.368.524 1.968-1.221.428-2.442 1.027-3.4 1.883-.698-1.199-.96-2.483-.96-3.853-.173-4.45 3.489-8.044 8.022-8.044zM20.573 45.021c-4.532 0-8.194-3.594-8.194-8.044h3.923c0 2.31 1.919 4.194 4.272 4.194s4.272-1.885 4.272-4.194h3.922c0 4.45-3.661 8.044-8.194 8.044h-.002zm0-11.298c-5.23 0-9.502-4.194-9.502-9.33 0-5.134 4.273-9.414 9.503-9.414s9.59 4.194 9.59 9.414c-.088 5.136-4.36 9.33-9.59 9.33h-.002zm19.965 11.298c-5.231 0-9.59-4.194-9.59-9.33 0-5.22 4.272-9.414 9.59-9.414 5.23 0 9.502 4.194 9.502 9.416 0 5.134-4.272 9.33-9.502 9.33v-.002zm5.665-9.414c0 3.081-2.528 5.477-5.666 5.477-3.137 0-5.666-2.482-5.666-5.477 0-3.082 2.529-5.565 5.666-5.565 3.139.087 5.666 2.568 5.666 5.565zm-20.05-11.214c0 3.082-2.528 5.565-5.666 5.565-3.14 0-5.667-2.482-5.667-5.565 0-3.081 2.527-5.564 5.667-5.564 3.225 0 5.666 2.483 5.666 5.566v-.002z" fill="#D9B432" fill-rule="nonzero"/></svg>