<svg width="60" height="60" xmlns="http://www.w3.org/2000/svg"><g fill="none" fill-rule="evenodd"><rect fill="#FFF" width="60" height="60" rx="12"/><g fill="#F8BF1E" fill-rule="nonzero"><path d="M29.816 31.707a1.818 1.818 0 001.816-1.82c0-1.005-.813-1.82-1.816-1.82a1.818 1.818 0 00-1.817 1.82c0 1.005.814 1.82 1.817 1.82zM44.297 31.707a1.818 1.818 0 001.816-1.82c0-1.005-.813-1.82-1.816-1.82a1.818 1.818 0 00-1.816 1.82c0 1.005.813 1.82 1.816 1.82zM44.297 46.24a1.818 1.818 0 001.816-1.819c0-1.005-.813-1.82-1.816-1.82a1.818 1.818 0 00-1.816 1.82c0 1.005.813 1.82 1.816 1.82z"/><path d="M49.625 15.018c-.19-2.657-2.317-4.812-4.97-5.004a5.43 5.43 0 00-4.301 1.628c-.813.838-1.912 1.341-3.083 1.341h-.43c-1.195 0-2.318-.503-3.154-1.365a5.334 5.334 0 00-3.848-1.604 5.431 5.431 0 00-3.847 1.604c-.836.862-1.96 1.365-3.154 1.365h-.406a4.312 4.312 0 01-3.107-1.293 9.26 9.26 0 00-.502-.479c-2.03-1.652-5.018-1.604-6.977.144-2.366 2.083-2.462 5.723-.263 7.925l.071.072c.86.814 1.315 1.964 1.315 3.137v.407c0 1.197-.502 2.322-1.362 3.16a5.355 5.355 0 00-1.601 3.855c0 1.509.62 2.874 1.6 3.855.86.838 1.363 1.964 1.363 3.16v.551c0 1.174-.502 2.275-1.338 3.09a5.384 5.384 0 00-1.625 4.094c.12 2.825 2.413 5.1 5.209 5.195a5.416 5.416 0 004.11-1.676c.813-.838 1.912-1.365 3.083-1.365h.454c1.17 0 2.27.503 3.082 1.365a5.418 5.418 0 004.326 1.652c2.652-.191 4.803-2.346 4.994-5.028.215-3.184-2.27-5.818-5.4-5.818a5.396 5.396 0 00-3.824 1.58c-.836.838-1.96 1.341-3.13 1.341h-.502a4.387 4.387 0 01-3.155-1.317l-.047-.048c-.86-.838-1.362-1.963-1.362-3.16v-.48c0-1.196.501-2.322 1.362-3.16a5.355 5.355 0 001.6-3.855 5.453 5.453 0 00-1.6-3.855c-.86-.838-1.362-1.963-1.362-3.16v-.431c0-1.197.501-2.323 1.338-3.16l.048-.049.047-.047c.837-.838 1.96-1.341 3.155-1.341h.43c1.195 0 2.318.503 3.154 1.365a5.334 5.334 0 003.847 1.604 5.431 5.431 0 003.848-1.604c.836-.862 1.96-1.365 3.154-1.365h.382c1.195 0 2.318.503 3.155 1.365a5.334 5.334 0 003.847 1.604c3.106.024 5.592-2.61 5.376-5.795z"/></g></g></svg>