<svg width="60" height="60" xmlns="http://www.w3.org/2000/svg"><defs><linearGradient x1="-.052%" y1="50.122%" x2="99.948%" y2="50.122%" id="prefix__a"><stop stop-color="#FFF" stop-opacity=".52" offset="0%"/><stop stop-color="#FFF" stop-opacity=".62" offset="100%"/></linearGradient><linearGradient x1="-.104%" y1="50.081%" x2="99.896%" y2="50.081%" id="prefix__b"><stop stop-color="#FFF" offset="0%"/><stop stop-color="#FFF" stop-opacity=".97" offset="100%"/></linearGradient><linearGradient x1="-.052%" y1="50.203%" x2="99.948%" y2="50.203%" id="prefix__c"><stop stop-color="#FFF" stop-opacity=".52" offset="0%"/><stop stop-color="#FFF" stop-opacity=".62" offset="100%"/></linearGradient><linearGradient x1="-.052%" y1="50.284%" x2="99.948%" y2="50.284%" id="prefix__d"><stop stop-color="#FFF" stop-opacity=".8" offset="0%"/><stop stop-color="#FFF" stop-opacity=".7" offset="100%"/></linearGradient><linearGradient x1="-.052%" y1="50.041%" x2="99.948%" y2="50.041%" id="prefix__e"><stop stop-color="#FFF" stop-opacity=".67" offset="0%"/><stop stop-color="#FFF" stop-opacity=".62" offset="100%"/></linearGradient><linearGradient x1="-.052%" y1="50.041%" x2="99.948%" y2="50.041%" id="prefix__f"><stop stop-color="#FFF" stop-opacity=".89" offset="0%"/><stop stop-color="#FFF" stop-opacity=".8" offset="100%"/></linearGradient><linearGradient x1="-.052%" y1="50.284%" x2="99.948%" y2="50.284%" id="prefix__g"><stop stop-color="#FFF" stop-opacity=".67" offset="0%"/><stop stop-color="#FFF" stop-opacity=".62" offset="100%"/></linearGradient><linearGradient x1="-.052%" y1="50.284%" x2="99.948%" y2="50.284%" id="prefix__h"><stop stop-color="#FFF" stop-opacity=".89" offset="0%"/><stop stop-color="#FFF" stop-opacity=".8" offset="100%"/></linearGradient><linearGradient x1="-.052%" y1="50.041%" x2="99.948%" y2="50.041%" id="prefix__i"><stop stop-color="#FFF" stop-opacity=".8" offset="0%"/><stop stop-color="#FFF" stop-opacity=".7" offset="100%"/></linearGradient><linearGradient x1="-.052%" y1="50.122%" x2="99.948%" y2="50.122%" id="prefix__j"><stop stop-color="#FFF" stop-opacity=".9" offset="0%"/><stop stop-color="#FFF" stop-opacity=".95" offset="100%"/></linearGradient><linearGradient x1="-.052%" y1="50.203%" x2="99.948%" y2="50.203%" id="prefix__k"><stop stop-color="#FFF" stop-opacity=".9" offset="0%"/><stop stop-color="#FFF" stop-opacity=".95" offset="100%"/></linearGradient></defs><g fill="none" fill-rule="evenodd"><rect fill="#212121" width="60" height="60" rx="12"/><g fill-rule="nonzero"><path fill="url(#prefix__a)" d="M28.5 19L19 28.5h19z" transform="translate(11 11)"/><path fill="url(#prefix__b)" d="M9.5 19L0 9.5v19z" transform="translate(11 11)"/><path fill="url(#prefix__c)" d="M28.5 19L38 9.5H19z" transform="translate(11 11)"/><path fill="url(#prefix__d)" d="M19 9.5L28.5 0h-19z" transform="translate(11 11)"/><path fill="url(#prefix__e)" d="M28.5 38l9.5-9.5H19z" transform="translate(11 11)"/><path fill="url(#prefix__f)" d="M9.5 38l9.5-9.5H0z" transform="translate(11 11)"/><path fill="url(#prefix__g)" d="M28.5 0L19 9.5h19z" transform="translate(11 11)"/><path fill="url(#prefix__h)" d="M0 9.5h19L9.5 0z" transform="translate(11 11)"/><path fill="url(#prefix__i)" d="M19 28.5L9.5 38h19z" transform="translate(11 11)"/><path fill="url(#prefix__j)" d="M9.5 19L0 28.5h19z" transform="translate(11 11)"/><path fill="url(#prefix__k)" d="M19 9.5H0L9.5 19z" transform="translate(11 11)"/></g></g></svg>