<svg width="60" height="60" xmlns="http://www.w3.org/2000/svg"><g fill="none" fill-rule="evenodd"><rect fill="#FFF" width="60" height="60" rx="12"/><g fill="#004DA2" fill-rule="nonzero"><path d="M7 37.969h8.214c2.19 0 4.075-.466 5.416-1.643 1.342-1.178 2.19-3.094 2.19-6.068 0-3.187-.766-5.126-2.047-6.276-1.282-1.15-3.105-1.538-5.29-1.533H7V25.8h7.185a2.35 2.35 0 012.25 1.129c.422.739.548 1.796.548 3.17 0 1.375-.115 2.371-.548 3.11a2.333 2.333 0 01-2.25 1.14h-1.643v-5.476H7v9.096zM24.031 37.969H29.6v-5.63h6.939v-3.488H29.6V25.8h6.939v-3.356H24.031zM40.377 24.13a7.119 7.119 0 00-2.71 5.854c0 2.788 1.002 4.836 2.628 6.205 1.627 1.369 3.883 2.053 6.407 2.053 2.095.04 4.183-.237 6.194-.821v-7.163h-4.715v4.173l-.104.038a3.888 3.888 0 01-1.314.148 2.99 2.99 0 01-2.623-1.298 5.29 5.29 0 01-.75-2.951 4.332 4.332 0 011.396-3.407 5.427 5.427 0 013.636-1.16 7.667 7.667 0 013.581.794v-3.867a18.674 18.674 0 00-5.273-.547 10.23 10.23 0 00-6.353 1.95"/></g></g></svg>