<svg width="60" height="60" xmlns="http://www.w3.org/2000/svg"><g fill="none" fill-rule="evenodd"><rect fill="#FFF" width="60" height="60" rx="12"/><path d="M49.277 30.662l-13.61 5.33c-.494.217-.887.61-1.104 1.103l-5.209 15.15a1.004 1.004 0 00.624 1.27c.211.069.44.069.651 0l13.032-5.01a3.752 3.752 0 002.025-2.14l4.893-14.467a.993.993 0 00-.662-1.247.977.977 0 00-.64.011zM48.334 29.371L36.08 34.16c-1.208.188-1.903-.43-2.759-1.103L18.596 21.47a1.832 1.832 0 01.844-3.31l13.319-3.172c.442-.06.892.043 1.263.292l5.407 3.614c-.72-.22-1.458-.37-2.207-.447-5.782-.464-10.94 1.49-11.161 4.336-.221 2.847 4.573 5.451 10.3 5.904 5.727.452 7.41-1.23 7.63-4.055 0-.11-2.206-4.63-2.206-4.745l6.968 5.247c1.247.822 1.01 3.718-.42 4.237z" fill="#FF7E36"/><path d="M24.924 6.585c.86-.331 3.41 1.815 4.966 2.874 1.423-.485 3.602-1.02 5.517-.717.94.13 1.85.413 2.698.839.81-.552 5.18-3.912 5.462-2.759a6.78 6.78 0 01.066 2.582 46.759 46.759 0 01-1.032 4.673c-.193.773-.711 1.523-.64 2.207a19.14 19.14 0 00.513 3.117c.265.933.398 1.931 1.027 2.577 3.42 2.648 6.438 6.455 7.067 8.336a1.583 1.583 0 01-.386 1.86c-.897.686-2.149.66-3.018-.06-.74-.601-1.426-1.264-2.052-1.982a21.123 21.123 0 00-1.545-1.434.938.938 0 00-.552-.281c-.44.038-.873.138-1.285.297-1.25.31-2.518.54-3.796.69.49.596 1.545 1.43 2.207 2.157.5.477.818 1.113.899 1.799 0 .657-.734 1.583-2.698 1.319a15.073 15.073 0 01-2.759-1.104c-8-4.723-8.336-9.269-9.252-16.96-.314-2.107-1.28-4.756-1.655-7.073-.16-.982-.552-2.604.26-2.935" fill="#050000"/><path d="M40.086 14.932c-.409.045-.734.778-1.198 1.104-.69.502-1.705.309-1.655-.083.05-.392.276-.42.872-.507.596-.089 1.655-.552 1.313-2.257-.281-1.484-1.959-1.148-1.959-1.148a1.308 1.308 0 00-1.037-.607c-.728-.055-1.335.889-1.335.889a.469.469 0 01-.712-.31 1.103 1.103 0 00-1.363-.507 1.512 1.512 0 00-1.042 1.6c.174.591.743.976 1.357.916.49-.033.805.232.761.464-.077.364-1.065.634-2.019.082a1.926 1.926 0 01-.767-1.362l.033-.442s-1.528 0-1.881 1.286c-.353 1.285.552 1.914 1.054 1.864.353-.033.088-.518.513-.915a.458.458 0 01.623 0 .397.397 0 01-.149.601c-.248.138-.436.778.27 1.18.315.177-.165 1.104-.728.403-.325-.424-.298-.606-.645-.551a1.473 1.473 0 01-.85-.359c-.066-.05-.48.166-.32.64.16.475.138 1.104 1.744 1.164.33 0 .44.072.513.337.071.265.866 1.478 2.047.827A.96.96 0 0034.077 18a.938.938 0 00-.612-.585.48.48 0 01-.364-.552.491.491 0 01.088-.187c.138-.138.27-.088.623.055 1.005.408 1.474 1.655.817 2.207-.276.22.281.585.74.651.457.066 2.206-.11 2.416-1.103.05-.312.065-.629.044-.944 0-.458.679-.513.695-.21.017.304 0 .365.133.491.386.348 1.417-.099 1.715-.783.298-.684.232-2.174-.286-2.108zm-4.58 1.926c-.182 0-.425-.265-.292-.414.252-.31.371-.706.33-1.103-.032-.392-.258-.552-.27-.767a.392.392 0 01.32-.38c.387-.122.685.76.652 1.516-.023.607-.32 1.142-.74 1.148h0zm.414-4.475c.138-.364.364-.325.458-.32.094.006.353.105.342.343 0 0-.138.728.138.954.327.21.724.282 1.103.199a.348.348 0 01.232.441.337.337 0 01-.138.188 1.606 1.606 0 01-1.721-.216 1.655 1.655 0 01-.414-1.589h0z" stroke="#DE6F28" stroke-width=".5" fill="#FFF" fill-rule="nonzero"/><path d="M17.801 22.684l14.726 11.52c.67.518.938 1.404.667 2.207L28.157 51.01a1.986 1.986 0 01-3.111.954L11.33 40.44a1.997 1.997 0 01-.679-2.207l4.033-14.599a1.98 1.98 0 012.5-1.274c.223.07.433.18.617.325z" fill="#FF7E36"/><path d="M25.156 37.007a6.703 6.703 0 01-.144 2.587 4.083 4.083 0 01-.993 1.948c-.398.425-.937.69-1.517.745a2.714 2.714 0 01-1.269-.237 7.757 7.757 0 01-1.495-.867l-2.505-1.726 1.91-7.769 1.483-.551 1.402 1.026c.52.352 1.002.757 1.44 1.208.358.385.668.813.921 1.275.397.733.657 1.534.767 2.36zm-2.626 2.61a3.31 3.31 0 00.607-1.385c.145-.56.186-1.142.12-1.716a3.785 3.785 0 00-.55-1.567 4.121 4.121 0 00-.514-.646 7.327 7.327 0 00-.866-.678l-.458-.326-1.396 5.727.458.326c.306.227.63.426.971.596.208.086.431.133.657.138a1.28 1.28 0 00.97-.47zM44.985 36.676l-.552 1.854-3.52 1.285-.552 1.782 3.261-1.191-.552 1.853-3.26 1.192-1.253 4.088-1.964.718 2.555-8.343 1.467-1.655z" fill="#FFF" fill-rule="nonzero"/></g></svg>