<svg width="60" height="60" xmlns="http://www.w3.org/2000/svg"><g fill="none" fill-rule="evenodd"><rect fill="#FFF" width="60" height="60" rx="12"/><g fill="#000" fill-rule="nonzero"><path d="M43.11 16.755c-.18-.18-.27-.36-.27-.584 0-.224.09-.404.27-.583a.956.956 0 011.257 0c.18.18.27.359.27.583 0 .225-.09.405-.27.584-.18.135-.404.225-.628.225-.225.044-.45-.045-.629-.225M40.91 19.09c-.134-.18-.224-.36-.224-.584 0-.224.09-.404.224-.584a.84.84 0 011.168 0c.134.18.224.36.224.584 0 .225-.09.404-.224.584-.18.134-.36.224-.584.224-.225 0-.404-.09-.584-.224M38.53 21.38a.854.854 0 01-.224-.584c0-.225.09-.404.225-.584a.84.84 0 011.167 0c.135.135.224.36.224.584 0 .224-.09.404-.224.584-.18.18-.36.224-.584.224a.854.854 0 01-.583-.224M36.24 23.67a.724.724 0 01-.269-.584c0-.225.09-.404.27-.584a.956.956 0 011.257 0c.18.135.27.36.27.584 0 .224-.09.449-.27.583-.18.18-.404.225-.629.225-.224 0-.449-.045-.628-.225M34.04 25.96c-.179-.136-.224-.36-.224-.584 0-.225.09-.405.225-.584a.84.84 0 011.167 0c.18.135.225.359.225.584 0 .224-.09.448-.225.583-.135.18-.359.225-.584.225a.585.585 0 01-.583-.225M31.392 27.665c0-.224.09-.404.224-.583a.84.84 0 011.168 0c.18.18.224.359.224.583 0 .225-.09.404-.224.584a.854.854 0 01-.584.224c-.224 0-.404-.09-.584-.224a.854.854 0 01-.224-.584zM27.127 32.739a.854.854 0 01-.225-.584c0-.224.09-.404.225-.584a.84.84 0 011.167 0c.18.18.224.36.224.584 0 .225-.09.404-.224.584-.135.18-.36.224-.584.224-.224.045-.404-.045-.583-.224M24.747 35.029a.724.724 0 01-.27-.584c0-.225.09-.404.27-.584a.956.956 0 011.257 0c.18.18.27.36.27.584 0 .224-.09.404-.27.584-.18.18-.404.224-.628.224-.225.045-.45-.045-.63-.224M22.547 37.363a.854.854 0 01-.225-.583c0-.225.09-.45.225-.584a.84.84 0 011.167 0c.135.135.225.36.225.584 0 .224-.09.404-.225.583-.18.18-.359.225-.583.225-.225 0-.404-.09-.584-.225M20.257 39.653c-.18-.135-.224-.36-.224-.584 0-.224.09-.404.224-.583a.84.84 0 011.167 0c.135.18.225.359.225.583 0 .225-.09.45-.225.584-.18.18-.359.225-.583.225-.225 0-.45-.045-.584-.225M17.878 41.943a.724.724 0 01-.27-.584c0-.224.09-.404.27-.583.359-.315.898-.315 1.212 0 .18.18.27.359.27.583 0 .225-.09.45-.27.584-.18.135-.404.224-.629.224-.224 0-.449-.045-.583-.224M15.633 44.233c-.18-.18-.225-.36-.225-.584 0-.225.09-.404.225-.584a.84.84 0 011.167 0c.18.18.224.36.224.584 0 .224-.09.404-.224.584a.854.854 0 01-.584.224c-.18.045-.404-.045-.583-.224M16.8 16.755c.135-.18.224-.36.224-.584 0-.224-.09-.404-.224-.583a.84.84 0 00-1.167 0c-.18.18-.225.359-.225.583 0 .225.09.405.225.584.134.135.359.225.583.225a.585.585 0 00.584-.225M19.09 19.09c.18-.18.27-.36.27-.584 0-.224-.09-.404-.27-.584a.956.956 0 00-1.257 0c-.18.18-.27.36-.27.584 0 .225.09.404.27.584.18.134.404.224.628.224.225 0 .45-.09.629-.224M21.424 21.38a.854.854 0 00.225-.584c0-.225-.09-.404-.225-.584a.84.84 0 00-1.167 0 .854.854 0 00-.224.584c0 .224.09.404.224.584.18.18.36.224.584.224.18 0 .404-.09.583-.224M23.714 23.67a.854.854 0 00.225-.584c0-.225-.09-.404-.225-.584a.84.84 0 00-1.167 0 .854.854 0 00-.225.584c0 .224.09.449.225.583.18.18.36.225.584.225.18 0 .404-.045.583-.225M25.96 25.96c.179-.136.269-.36.269-.584 0-.225-.09-.405-.27-.584-.314-.314-.898-.314-1.212 0a.724.724 0 00-.27.584c0 .224.09.448.27.583.18.18.404.225.629.225a.585.585 0 00.583-.225M28.518 27.665c0-.224-.09-.404-.224-.583a.84.84 0 00-1.167 0c-.18.18-.225.359-.225.583 0 .225.09.404.225.584.134.135.359.224.583.224.225 0 .404-.09.584-.224.18-.135.224-.36.224-.584zM30.584 30.584c.18-.18.224-.36.224-.584 0-.224-.09-.404-.224-.584a.84.84 0 00-1.168 0c-.18.18-.224.36-.224.584 0 .224.09.404.224.584.135.134.36.224.584.224.224 0 .449-.09.584-.224M32.873 32.739c.18-.135.27-.36.27-.584 0-.224-.09-.404-.27-.584-.359-.314-.897-.314-1.212 0-.18.18-.27.36-.27.584 0 .225.09.404.27.584.18.18.404.224.629.224.18.045.404-.045.583-.224M35.208 35.029a.854.854 0 00.225-.584c0-.225-.09-.404-.225-.584a.84.84 0 00-1.167 0c-.135.18-.225.36-.225.584 0 .224.09.404.225.584.18.18.359.224.583.224.18.045.405-.045.584-.224M37.498 37.363a.854.854 0 00.224-.583.854.854 0 00-.224-.584.84.84 0 00-1.167 0 .854.854 0 00-.225.584c0 .224.09.404.225.583.18.18.359.225.583.225.225 0 .404-.09.584-.225M39.653 39.653c.18-.135.225-.36.225-.584 0-.224-.09-.404-.225-.583a.84.84 0 00-1.167 0c-.135.18-.225.359-.225.583 0 .225.09.45.225.584.18.18.359.225.583.225.225 0 .45-.045.584-.225M42.078 41.943c.18-.135.224-.36.224-.584 0-.224-.09-.404-.224-.583a.84.84 0 00-1.168 0c-.18.18-.224.359-.224.583 0 .225.09.45.224.584.135.135.36.224.584.224.224 0 .449-.045.584-.224M44.367 44.233c.18-.18.27-.36.27-.584 0-.225-.09-.404-.27-.584-.359-.314-.898-.314-1.212 0-.18.18-.27.36-.27.584 0 .224.09.404.27.584.18.134.404.224.629.224.18.045.404-.045.583-.224M22.233 17.384c2.334-1.527 4.894-2.245 7.722-2.29 2.784 0 5.343.763 7.723 2.29l4.938-4.94c-3.86-2.917-8.036-4.4-12.66-4.4-4.625 0-8.846 1.483-12.617 4.4l4.894 4.94zM17.294 37.633c-1.572-2.38-2.335-4.94-2.335-7.678 0-2.784.763-5.343 2.335-7.677L12.4 17.384C9.527 21.155 8.09 25.33 8.09 30c0 4.58 1.437 8.8 4.355 12.616l4.849-4.983zM37.678 42.527c-2.335 1.571-4.894 2.38-7.678 2.424-2.829 0-5.433-.763-7.767-2.38l-4.94 4.894c3.817 2.964 8.038 4.445 12.707 4.4 4.624-.045 8.8-1.526 12.571-4.4l-4.893-4.938zM42.482 22.233c1.571 2.38 2.38 4.983 2.334 7.812-.045 2.739-.808 5.253-2.334 7.543l4.938 4.894c2.919-3.772 4.4-7.947 4.4-12.527.045-4.67-1.436-8.89-4.4-12.706l-4.938 4.984zM47.645 44.053a3.459 3.459 0 013.457 3.457 3.459 3.459 0 01-3.457 3.457 3.459 3.459 0 01-3.457-3.457 3.43 3.43 0 013.457-3.457M12.355 44.053c1.886 0 3.412 1.527 3.412 3.457 0 1.886-1.526 3.457-3.412 3.457s-3.412-1.526-3.412-3.457c0-1.93 1.526-3.457 3.412-3.457M47.69 8.808c1.886 0 3.412 1.527 3.412 3.457s-1.526 3.457-3.412 3.457-3.412-1.526-3.412-3.457c0-1.93 1.526-3.457 3.412-3.457M12.31 8.808c1.886 0 3.457 1.527 3.457 3.412 0 1.886-1.526 3.413-3.457 3.413-1.886 0-3.457-1.527-3.457-3.413 0-1.885 1.527-3.412 3.457-3.412"/></g></g></svg>