<svg width="60" height="60" xmlns="http://www.w3.org/2000/svg"><defs><linearGradient x1="13.869%" y1=".952%" x2="123.103%" y2="-56.797%" id="prefix__a"><stop stop-color="#F85860" offset="0%"/><stop stop-color="#FFA84A" offset="100%"/></linearGradient><linearGradient x1="-6.994%" y1="49.992%" x2="106.029%" y2="49.701%" id="prefix__b"><stop stop-color="#9159F9" offset="0%"/><stop stop-color="#783EE3" offset="100%"/></linearGradient><linearGradient x1="-8.252%" y1="66.032%" x2="107.53%" y2="64.148%" id="prefix__c"><stop stop-color="#FFA84A" offset="0%"/><stop stop-color="#FFD08A" offset="100%"/></linearGradient></defs><g fill="none" fill-rule="evenodd"><rect fill="#FFF" width="60" height="60" rx="12"/><g fill-rule="nonzero"><path d="M.876 18.41h13.536a4.05 4.05 0 014.051 4.054v16.789a.877.877 0 01-.876.876H.876A.876.876 0 010 39.255v-19.97a.877.877 0 01.876-.875z" fill="url(#prefix__a)" transform="translate(10 9)"/><path d="M15.13.266L.382 14.183A.904.904 0 001 15.735h36.883a.903.903 0 00.903-.903V.904A.904.904 0 0037.882 0H15.745a.903.903 0 00-.616.266z" fill="url(#prefix__b)" transform="translate(10 9)"/><path d="M29.927 36.924c4.89 0 8.854-3.967 8.854-8.86 0-4.894-3.964-8.86-8.854-8.86-4.89 0-8.854 3.966-8.854 8.86 0 4.893 3.964 8.86 8.854 8.86z" fill="url(#prefix__c)" transform="translate(10 9)"/></g></g></svg>