<svg width="60" height="60" xmlns="http://www.w3.org/2000/svg"><g fill="none" fill-rule="evenodd"><rect fill="#FFF" width="60" height="60" rx="12"/><path d="M30 8.143c-8.882-.004-16.89 5.323-20.292 13.496a21.81 21.81 0 004.754 23.84c6.28 6.257 15.724 8.13 23.93 4.745 8.206-3.385 13.557-11.361 13.557-20.209C51.948 17.94 42.123 8.148 30 8.143zM46.07 31.21H35.873c-.63 3.142-3.565 5.283-6.762 4.933-3.198-.35-5.596-3.077-5.525-6.28.072-3.203 2.588-5.821 5.798-6.03 3.21-.21 6.048 2.06 6.537 5.226h10.14c.597 0 1.08.481 1.08 1.075s-.483 1.076-1.08 1.076h.01z" fill="#000" fill-rule="nonzero"/></g></svg>