<svg width="60" height="60" xmlns="http://www.w3.org/2000/svg"><g fill="none" fill-rule="evenodd"><rect fill="#FFF" width="60" height="60" rx="12"/><path d="M45.574 46.692l1.774 1.831v-1.83h1.344V51h-1.29l-1.775-1.938V51h-1.29v-4.308h1.237zm-23.874 0V51h-1.237v-.915H18.69V51h-1.237v-4.308H21.7zm20.432-.054v1.239h-3.064v.323h3.064v1.238h-3.064v.324h3.064V51h-4.247v-4.308h.376v-.054h3.871zm-29.895.054v1.454h1.774v-1.454h1.344V51h-1.29v-1.508H12.29V51H11v-4.308h1.237zm16.507-.054v1.239h-3.495v1.885h3.495V51h-4.84v-4.308h.646v-.054h4.194zm3.495.054v1.454h2.097v-1.454h1.452v1.454l-1.29 1.292h1.29V51H34.39v-1.508h-2.097V51h-1.398v-4.308h1.344zm-11.722 1.239h-1.774v.861h1.774v-.861zM13.151 9v16.692h2.15V9h2.205v16.638h28.981v-2.1H20.141V9h2.15v12.277h24.196v-2.585H23.905V9h2.204v7.538h6.936V9h2.151v7.538h2.689V9h2.15v7.538h2.15L42.187 9h2.151v7.538h2.15V9h2.152v35.538h-2.151V27.846h-2.151v16.692h-2.205V27.9H13.151V30h26.884v14.538h-2.15V32.262H13.15v2.584h22.583v9.692h-2.205V37h-6.936v7.538h-2.15V37h-2.69v7.538h-2.15V37h-2.15v7.538h-2.151V37H13.15v7.538H11V9h2.15z" opacity=".9" fill="#2AE2B3" fill-rule="nonzero"/></g></svg>