<svg width="60" height="60" xmlns="http://www.w3.org/2000/svg"><defs><linearGradient x1="50%" y1=".303%" x2="-18.946%" y2="69.039%" id="prefix__a"><stop stop-color="#00E8A2" offset="0%"/><stop stop-color="#00ADE8" offset="100%"/></linearGradient></defs><g fill="none" fill-rule="evenodd"><rect fill="#FFF" width="60" height="60" rx="12"/><path d="M30.861.732c-4.635 0-8.416 3.781-8.539 8.417v9.392c-.853 0-1.707.122-2.683.122-.976 0-1.83 0-2.684.122V9.15c0-4.636-3.903-8.417-8.66-8.295C3.78.854.122 4.635 0 9.149v22.444c.122 4.635 3.903 8.417 8.66 8.295 4.636-.122 8.295-3.782 8.295-8.295v-9.392c.854 0 1.708-.122 2.684-.122.976 0 1.83 0 2.683-.122v9.514c.123 4.635 3.904 8.417 8.661 8.295 4.635-.122 8.295-3.781 8.295-8.295V9.15c0-4.636-3.782-8.417-8.417-8.417zM8.54 4.147c2.805 0 5 2.196 5 5.002v9.88c-2.439.366-4.878 1.098-7.196 2.074-.976.488-1.952.976-2.806 1.707V9.15c0-2.684 2.196-5.002 5.002-5.002zm5 27.446c0 2.806-2.195 5.001-5 5.001-2.806 0-5.002-2.195-5.002-5v-2.196c0-1.952 1.586-3.904 4.27-5.002 1.83-.854 3.781-1.342 5.855-1.707l-.122 8.904zm17.322 5.001c-2.805 0-5.001-2.195-5.001-5v-9.881c2.44-.366 4.88-1.098 7.197-2.074.976-.488 1.952-.976 2.805-1.708v13.662c0 2.806-2.317 5.001-5 5.001zm.732-20.126c-1.83.853-3.781 1.341-5.855 1.707V9.15c0-2.806 2.196-5.002 5.001-5.002 2.806 0 5.001 2.196 5.001 5.002v2.195c.122 2.074-1.463 3.904-4.147 5.124z" transform="translate(10 10)" fill="url(#prefix__a)" fill-rule="nonzero"/></g></svg>