<svg width="60" height="60" xmlns="http://www.w3.org/2000/svg"><defs><linearGradient x1="-14.706%" y1="82.279%" x2="71.868%" y2="-15.615%" id="prefix__a"><stop stop-color="#F0F" offset="0%"/><stop stop-color="#7A84FF" offset="46.261%"/><stop stop-color="#05FAFF" offset="100%"/></linearGradient></defs><g fill="none" fill-rule="evenodd"><rect fill="#FFF" width="60" height="60" rx="12"/><path d="M8.202.07a7.455 7.455 0 00-2.05 0 7.244 7.244 0 00-4.049 2.012A7.076 7.076 0 00.072 6.08 7.15 7.15 0 000 7.09v18.236c0 .339.024.676.072 1.011a7.076 7.076 0 002.03 4 7.244 7.244 0 004.05 2.013 7.245 7.245 0 006.105-2.008 7.076 7.076 0 002.036-4c.048-.336.072-.674.072-1.012V7.09c0-.337-.024-.675-.072-1.01a7.076 7.076 0 00-2.036-4.001A7.244 7.244 0 008.202.07zm0 2.053c.987.2 1.894.682 2.606 1.385a5.066 5.066 0 011.405 2.572H8.202V2.123zm-2.05 0V6.08H2.145a5.063 5.063 0 011.403-2.572 5.174 5.174 0 012.606-1.385zm-4.11 5.979h4.11v4.056h-4.11V8.102zm0 6.078h4.11v4.057h-4.11V14.18zm0 6.08h4.11v4.055h-4.11V20.26zm4.11 10.034a5.174 5.174 0 01-2.605-1.385 5.062 5.062 0 01-1.403-2.572h4.009v3.957zm2.05 0v-3.957h4.01a5.067 5.067 0 01-1.404 2.572 5.179 5.179 0 01-2.606 1.385zm4.113-5.979H8.202V20.26h4.113v4.056zm0-6.078H8.202V14.18h4.113v4.057zm0-6.08H8.202V8.103h4.113v4.056zM43.04 6.08a7.077 7.077 0 00-2.036-4.001A7.244 7.244 0 0034.898.07a7.244 7.244 0 00-4.054 2.008 7.076 7.076 0 00-2.035 4 7.152 7.152 0 00-.071 1.012v18.235c0 .339.024.676.071 1.011a7.076 7.076 0 002.034 4.003 7.245 7.245 0 004.055 2.01 7.245 7.245 0 006.106-2.01 7.077 7.077 0 002.035-4.003 7.15 7.15 0 00.072-1.01V7.09c0-.338-.024-.676-.072-1.011zm-6.091-3.957c.987.2 1.893.682 2.606 1.385A5.067 5.067 0 0140.96 6.08h-4.011V2.123zm-2.05 0V6.08H30.89a5.063 5.063 0 011.403-2.572 5.174 5.174 0 012.605-1.385zm-4.11 5.979h4.11v4.056h-4.11V8.102zm0 6.078h4.11v4.057h-4.11V14.18zm0 6.08h4.11v4.055h-4.11V20.26zm4.11 10.034a5.174 5.174 0 01-2.605-1.385 5.062 5.062 0 01-1.403-2.572h4.008v3.957zm2.05 0v-3.957h4.01a5.067 5.067 0 01-1.404 2.572 5.18 5.18 0 01-2.606 1.385zm4.113-5.979h-4.113V20.26h4.113v4.056zm0-6.078h-4.113V14.18h4.113v4.057zm0-6.08h-4.113V8.103h4.113v4.056zm-24.643-1.01h4.1v4.044h-4.1v-4.044zm6.163 0h4.1v4.044h-4.1v-4.044zm-6.163 6.08h4.1v4.043h-4.1v-4.043zm6.163 0h4.1v4.043h-4.1v-4.043z" transform="translate(8 14)" fill="url(#prefix__a)" fill-rule="nonzero"/></g></svg>