<svg width="60" height="60" xmlns="http://www.w3.org/2000/svg"><g fill="none" fill-rule="evenodd"><rect fill="#0F1735" width="60" height="60" rx="12"/><path d="M34.787 21.22c0-6.634-3.231-12.339-5.69-14.197-.01-.005-.188-.106-.173.16 0 .003-.003.005-.003.008C28.716 20 22.173 23.47 18.575 28.148c-8.302 10.792-.58 22.624 7.282 24.811 4.399 1.224-1.016-2.165-1.714-9.323-.843-8.65 10.644-15.254 10.644-22.416z" fill="#FFF"/><path d="M38.56 25.58c-.051-.033-.123-.056-.172.025-.135 1.613-1.782 5.062-3.87 8.23-7.08 10.742-3.045 15.92-.776 18.702 1.317 1.614 0 0 3.292-1.65.258-.13 6.425-3.588 7.093-11.468.646-7.631-3.936-12.44-5.568-13.838z" fill="#008AC4"/></g></svg>