<svg width="60" height="60" xmlns="http://www.w3.org/2000/svg"><defs><linearGradient x1="50%" y1="0%" x2="50%" y2="100%" id="prefix__a"><stop stop-color="#006EF5" offset="0%"/><stop stop-color="#0062DB" offset="100%"/></linearGradient></defs><g fill="none" fill-rule="evenodd"><rect fill="#FFF" width="60" height="60" rx="12"/><path d="M23 28v-7c2.367.408 5.02.658 8 .658 2.98 0 5.632-.25 8-.658v7H23zm8 10.341c-2.98 0-5.633.25-8 .659v-7h16v7c-2.368-.408-5.02-.659-8-.659zm12.036-18.706l.095-.035c2.321-.822 4.22-1.798 5.73-2.764A2.507 2.507 0 0050 14.716c0-1.383-1.532-2.191-2.667-1.412-1.72 1.18-4.149 2.444-7.44 3.344-.1.027-.195.056-.295.083-.456.12-.931.23-1.42.333-.147.032-.3.061-.45.091-.405.082-.821.156-1.248.225-.13.02-.257.044-.39.063-.555.083-1.127.156-1.72.217-.103.01-.209.017-.313.027-.513.049-1.04.087-1.582.118-.153.008-.306.017-.462.024-.652.029-1.319.048-2.013.048a44.999 44.999 0 01-4.009-.187c-.127-.011-.256-.02-.38-.033-.574-.059-1.126-.13-1.664-.21-.177-.026-.348-.056-.522-.084-.36-.06-.713-.123-1.057-.19-.207-.041-.415-.081-.616-.125a32.825 32.825 0 01-1.92-.481c-3.145-.892-5.484-2.116-7.156-3.26A1.705 1.705 0 0010 14.718c0 .855.42 1.66 1.136 2.117 1.51.964 3.403 1.939 5.72 2.76l.115.043c.464.162.949.315 1.444.465v8.051h-1.683c-.749 0-1.357.612-1.357 1.367a2.316 2.316 0 002.308 2.324h.732v8.051c-.495.15-.98.304-1.444.465-.04.014-.077.03-.115.044-2.317.821-4.21 1.795-5.72 2.76A2.504 2.504 0 0010 45.282a1.705 1.705 0 002.676 1.41c1.672-1.144 4.011-2.367 7.157-3.26a31.47 31.47 0 011.919-.48 32.596 32.596 0 011.673-.314c.174-.03.345-.06.522-.086.538-.08 1.09-.151 1.664-.21.124-.013.253-.022.38-.033a42.161 42.161 0 011.523-.114l.48-.025c.65-.028 1.314-.048 2.006-.048.694 0 1.36.02 2.013.048.156.007.309.016.462.024.541.03 1.07.07 1.582.118.104.01.21.017.313.027.593.061 1.165.135 1.72.218.133.02.26.042.39.063.427.069.843.143 1.248.224l.45.09c.489.105.964.215 1.42.334.1.027.195.057.295.084 3.291.9 5.72 2.164 7.44 3.344 1.135.78 2.667-.029 2.667-1.413 0-.856-.421-1.662-1.139-2.12-1.51-.965-3.409-1.942-5.73-2.764-.032-.011-.063-.024-.095-.034a35.163 35.163 0 00-1.451-.469v-8.051h1.683c.749 0 1.357-.612 1.357-1.367a2.316 2.316 0 00-2.308-2.324h-.732v-8.05c.498-.15.986-.306 1.451-.469z" fill="url(#prefix__a)" fill-rule="nonzero"/></g></svg>