<svg width="60" height="60" xmlns="http://www.w3.org/2000/svg"><g fill="none" fill-rule="evenodd"><rect fill="#060A5A" width="60" height="60" rx="12"/><circle fill="#060A5A" cx="30" cy="30" r="30"/><g fill-rule="nonzero"><path d="M21.342 24.123a4.526 4.526 0 004.519-4.532 4.526 4.526 0 00-4.52-4.532 4.526 4.526 0 00-4.518 4.532 4.526 4.526 0 004.519 4.532z" fill="#FFF"/><path d="M42.039 24.123H35.78a1.41 1.41 0 01-1.4-1.405v-6.277c0-.77.632-1.405 1.4-1.405h6.259a1.41 1.41 0 011.401 1.405v6.277c0 .793-.633 1.405-1.401 1.405z" fill="#00FFB9"/><path d="M25.86 27.995H18.72c-1.061 0-1.92.861-1.92 1.926V44.22c0 1.065.859 1.926 1.92 1.926h5.22c1.062 0 1.92-.861 1.92-1.926v-5.212c0-1.065.86-1.926 1.921-1.926h4.949c1.062 0 1.92-.861 1.92-1.926V29.92a1.922 1.922 0 00-1.92-1.926h-6.87z" fill="#00DAFF"/></g></g></svg>