<svg width="60" height="60" xmlns="http://www.w3.org/2000/svg"><defs><linearGradient x1="97.204%" y1="-44.576%" x2="0%" y2="150.178%" id="prefix__a"><stop stop-color="#11C4D1" offset="0%"/><stop stop-color="#0062AD" offset="100%"/></linearGradient></defs><g fill="none" fill-rule="evenodd"><rect fill="url(#prefix__a)" width="60" height="60" rx="12"/><path d="M52.883 15.096c1.484 20.232-11.436 29.795-23.019 30.814-10.769.948-20.905-5.712-21.794-15.945-.734-8.454 4.457-12.053 8.536-12.412 4.195-.37 7.72 2.542 8.026 6.067.294 3.39-1.807 4.933-3.268 5.061-1.156.102-2.61-.604-2.741-2.12-.113-1.303.379-1.481.259-2.865-.214-2.464-2.35-2.751-3.518-2.65-1.415.125-3.981 1.787-3.62 5.926.361 4.175 4.338 7.474 9.552 7.015 5.626-.494 9.544-4.904 9.838-11.088a2.26 2.26 0 01.2-.95l.003-.007c.06-.13.131-.254.212-.372.12-.182.274-.382.472-.6.002-.007.002-.007.006-.007.144-.164.319-.341.516-.532 2.458-2.334 11.309-7.839 19.68-6.096a.842.842 0 01.66.761" fill="#FFF" fill-rule="nonzero"/></g></svg>