<svg width="60" height="60" xmlns="http://www.w3.org/2000/svg"><g fill="none" fill-rule="evenodd"><rect fill="#FFF" width="60" height="60" rx="12"/><g fill="#2E836D" fill-rule="nonzero"><path d="M22.533 41.733V22.667h5.134v19.066h-5.134zM13 44.667V25.6h5.133v19.067H13zM36.467 47.6h-5.134V28.533h5.134V47.6zM40.867 52V32.933H46V52h-5.133zM27.644 19h-5.086c-.007-.08-.019-.15-.019-.219 0-1.546.003-3.092-.006-4.638-.001-.216.059-.277.273-.276 1.531.009 3.062.006 4.593.003.162 0 .269.005.268.224-.009 1.591-.005 3.183-.006 4.774 0 .035-.009.07-.017.132zM27.649 49.8h-5.097c-.005-.1-.012-.188-.012-.276-.001-1.518.005-3.037-.007-4.556-.002-.245.068-.303.303-.301 1.522.01 3.044.007 4.565.003.164 0 .266.01.266.227-.008 1.582-.005 3.165-.006 4.748 0 .042-.007.086-.012.155zM18.107 14.6h-5.102v-.266c0-1.52.004-3.037-.005-4.556-.002-.23.044-.313.293-.311 1.522.012 3.044.007 4.566.005.153 0 .276-.012.274.216-.009 1.6-.005 3.2-.006 4.8 0 .027-.009.053-.02.112zM46 24.133v5.134h-5.133v-5.134H46zM31.333 24.867v-5.134h5.134v5.134h-5.134zM46 21.2h-5.133v-5.133H46V21.2zM31.333 16.8v-5.133h5.134V16.8h-5.134zM46 13.133h-5.133V8H46v5.133zM18.133 17.533v5.134H13v-5.134h5.133z"/></g></g></svg>