<svg width="60" height="60" xmlns="http://www.w3.org/2000/svg"><g fill="none" fill-rule="evenodd"><rect fill="#FFF" width="60" height="60" rx="12"/><g fill="#4DD9F6" fill-rule="nonzero"><path d="M30.038 52c-6.788 0-12.232-4.355-14.218-11.336-2.69-9.223.961-22.545 15.05-31.447L32.857 8v2.306c0 7.941 3.202 12.489 6.277 16.844C41.63 30.673 44 34.067 44 38.678 43.936 45.275 39.197 52 30.038 52zm.385-39.325c-11.465 8.07-14.475 19.407-12.169 27.284 1.73 5.893 6.084 9.415 11.784 9.415 7.814 0 11.336-5.572 11.336-10.696 0-3.843-2.05-6.725-4.355-10.055-2.882-4.035-6.084-8.582-6.596-15.948z"/><path d="M27.15 52c-.74 0-1.411-.064-2.15-.256l.672-2.497c2.082.512 4.165-.128 5.374-1.729 1.88-2.433 1.478-6.146-1.075-10.052C23.59 27.8 23.724 18.26 30.441 10l2.15 1.537c-6.046 7.49-6.113 15.75-.269 24.585 3.158 4.802 3.56 9.604 1.008 12.933C31.718 50.912 29.5 52 27.15 52z"/></g></g></svg>