<svg width="60" height="60" xmlns="http://www.w3.org/2000/svg"><defs><linearGradient x1="11.809%" y1="16.005%" x2="88.191%" y2="83.995%" id="prefix__a"><stop stop-color="#02C86A" offset="20.965%"/><stop stop-color="#14EA85" offset="33.591%"/></linearGradient><linearGradient x1="11.809%" y1="16.005%" x2="88.191%" y2="83.995%" id="prefix__b"><stop stop-color="#02C86A" offset="32.16%"/><stop stop-color="#11ED85" offset="50.642%"/></linearGradient><linearGradient x1="11.809%" y1="16.005%" x2="88.191%" y2="83.995%" id="prefix__c"><stop stop-color="#1FD17D" offset="50.124%"/><stop stop-color="#2CE28C" offset="64.137%"/></linearGradient><linearGradient x1="11.809%" y1="16.005%" x2="88.192%" y2="83.995%" id="prefix__d"><stop stop-color="#1BC675" offset="64.963%"/><stop stop-color="#0FD879" offset="79.671%"/></linearGradient></defs><g fill="none" fill-rule="evenodd"><rect fill="#FFF" width="60" height="60" rx="12"/><g fill-rule="nonzero"><path d="M0 21.21l3.096-2.81 3.51 3.79a3.868 3.868 0 003.214 1.215l2.035-.2a2.579 2.579 0 012.143.811L26.22 37.211l-3.096 2.809L9.162 24.948a2.58 2.58 0 00-2.487-.753l-1.738.412a2.58 2.58 0 01-2.487-.753L0 21.209z" fill="url(#prefix__a)" transform="translate(7 10)"/><path d="M6.9 14.77l3.096-2.81 6.664 7.194a3.868 3.868 0 003.214 1.216l2.035-.2a2.578 2.578 0 012.142.811l9.069 9.79-3.096 2.809-10.808-11.667a2.58 2.58 0 00-2.487-.753l-1.738.412a2.581 2.581 0 01-2.487-.753L6.9 14.769z" fill="url(#prefix__b)" transform="translate(7 10)"/><path d="M13.34 8.79l3.096-2.81 9.818 10.599a3.868 3.868 0 003.214 1.215l2.035-.199a2.578 2.578 0 012.142.81l5.915 6.386-3.096 2.809-7.654-8.262a2.581 2.581 0 00-2.487-.754l-1.739.412a2.58 2.58 0 01-2.486-.753L13.34 8.79z" fill="url(#prefix__c)" transform="translate(7 10)"/><path d="M19.78 2.81L22.876 0l12.972 14.004a3.868 3.868 0 003.214 1.215l2.035-.199a2.578 2.578 0 012.142.81L46 18.81l-3.096 2.81-4.5-4.858a2.58 2.58 0 00-2.487-.753l-1.739.412a2.58 2.58 0 01-2.486-.753L19.78 2.809z" fill="url(#prefix__d)" transform="translate(7 10)"/></g></g></svg>