<svg width="60" height="60" xmlns="http://www.w3.org/2000/svg"><g fill="none" fill-rule="evenodd"><rect fill="#FFF" width="60" height="60" rx="12"/><path d="M41.33 12.942l-7.897 11.78c-.546.802.504 1.774 1.26 1.098l7.772-6.798c.21-.169.504-.042.504.254v21.237c0 .296-.378.423-.546.211L18.898 12.436C18.142 11.506 17.049 11 15.83 11h-.84C12.806 11 11 12.816 11 15.053v29.894C11 47.184 12.806 49 15.033 49a4.046 4.046 0 003.445-1.942l7.897-11.78c.547-.802-.504-1.774-1.26-1.098l-7.772 6.756c-.21.168-.504.042-.504-.254V19.487c0-.296.378-.423.546-.211l23.526 28.288A3.94 3.94 0 0043.977 49h.84c2.227 0 4.033-1.816 4.033-4.053V15.053C48.808 12.816 47.002 11 44.776 11a4.046 4.046 0 00-3.445 1.942z" fill="#000" fill-rule="nonzero"/></g></svg>