<svg width="60" height="60" xmlns="http://www.w3.org/2000/svg" xmlns:xlink="http://www.w3.org/1999/xlink"><defs><path id="prefix__a" d="M0 0h42v42H0z"/></defs><g fill="none" fill-rule="evenodd"><rect fill="#FFF" width="60" height="60" rx="12"/><g transform="translate(9 9)"><mask id="prefix__b" fill="#fff"><use xlink:href="#prefix__a"/></mask><path d="M16.418 42v-7.954c-5.982-1.883-10.31-7.354-10.31-13.81 0-8.013 6.668-14.509 14.892-14.509 8.223 0 14.89 6.496 14.89 14.51 0 6.455-4.327 11.926-10.31 13.809V42H42v-5.919h-8.108c4.878-3.695 8.011-9.44 8.011-15.893C41.903 9.038 32.545 0 21 0 9.454 0 .095 9.039.095 20.188c0 6.453 3.134 12.198 8.012 15.893H0V42h16.418z" fill="#243348" mask="url(#prefix__b)"/></g></g></svg>