<svg width="60" height="60" xmlns="http://www.w3.org/2000/svg"><g fill="none" fill-rule="evenodd"><rect fill="#FFF" width="60" height="60" rx="12"/><g transform="translate(8 8)" fill="#00C36A" fill-rule="nonzero"><circle cx="33.973" cy="33.968" r="3.882"/><circle cx="21.507" cy="21.502" r="9.729"/><circle cx="9.069" cy="9.064" r="3.882"/><path d="M27.94 33.968c0-.117 0-.224.01-.342a13.579 13.579 0 01-6.434 1.604c-7.577-.01-13.718-6.15-13.728-13.728a13.569 13.569 0 011.604-6.424 6.021 6.021 0 01-6.229-4.791 21.508 21.508 0 0018.353 32.736c3.961.01 7.847-1.08 11.225-3.149a6.022 6.022 0 01-4.8-5.906zM36.73 6.297A21.542 21.542 0 0010.283 3.16a6.037 6.037 0 014.82 5.905c0 .108 0 .216-.01.323a13.721 13.721 0 0118.549 18.558 6.033 6.033 0 016.248 4.772 21.546 21.546 0 00-3.158-26.42z"/></g></g></svg>