<svg width="60" height="60" xmlns="http://www.w3.org/2000/svg"><g fill="none" fill-rule="evenodd"><rect fill="#FFF" width="60" height="60" rx="12"/><g fill="#23496E" fill-rule="nonzero"><path d="M15.032 31.519c2.836-6.486 5.685-12.966 8.489-19.465.31-.718.663-.981 1.452-.972 3.563.043 7.127.032 10.69.007.669-.004 1.1.094 1.402.805 4.934 11.642 9.9 23.27 14.854 34.904.055.13.04.29.072.568-2.108 0-4.177-.045-6.243.02-.965.03-1.025-.693-1.261-1.248-3.9-9.17-7.811-18.334-11.628-27.538-.5-1.204-1.089-1.63-2.336-1.52-1.264.113-2.448-.25-3.113 1.547-1.61 4.36-3.538 8.602-5.338 12.891h-7.04M16.819 37.82l-4.62.002L8 47.367c2.313 0 4.362-.033 6.409.019.679.017 1.01-.215 1.253-.8 1.22-2.928 2.466-5.845 3.704-8.766h-2.547"/></g></g></svg>