<svg width="60" height="60" xmlns="http://www.w3.org/2000/svg"><g fill="none" fill-rule="evenodd"><rect fill="#8346E5" width="60" height="60" rx="12"/><path d="M40.694 22.998c-.775-.457-1.783-.457-2.635 0l-6.044 3.501-4.107 2.283-6.045 3.501c-.774.457-1.782.457-2.634 0l-4.805-2.74c-.775-.456-1.317-1.293-1.317-2.207v-5.404c0-.913.465-1.75 1.317-2.207l4.727-2.664c.775-.456 1.783-.456 2.635 0l4.727 2.664c.775.457 1.317 1.294 1.317 2.207v3.501l4.107-2.359v-3.501a2.46 2.46 0 00-1.317-2.207l-8.757-5.024c-.774-.456-1.782-.456-2.634 0l-8.912 5.024A2.46 2.46 0 009 19.573v10.123c0 .913.465 1.75 1.317 2.207l8.912 5.023c.775.457 1.782.457 2.634 0l6.045-3.425 4.107-2.36 6.044-3.424c.775-.457 1.782-.457 2.635 0l4.727 2.664c.774.456 1.317 1.293 1.317 2.207v5.404a2.46 2.46 0 01-1.317 2.207l-4.727 2.74c-.775.456-1.783.456-2.635 0l-4.727-2.664c-.775-.457-1.317-1.294-1.317-2.207v-3.501l-4.107 2.36v3.5c0 .913.465 1.75 1.317 2.207l8.912 5.024c.774.456 1.782.456 2.634 0l8.912-5.024C50.458 42.178 51 41.34 51 40.427V30.304a2.46 2.46 0 00-1.317-2.207l-8.99-5.1z" fill="#FFF" fill-rule="nonzero"/></g></svg>