<svg width="60" height="60" xmlns="http://www.w3.org/2000/svg"><defs><linearGradient x1="50.001%" y1="0%" x2="50.001%" y2="100%" id="prefix__a"><stop stop-color="#826DF9" offset="0%"/><stop stop-color="#7F6DF9" offset="28.26%"/><stop stop-color="#746FFA" offset="52.33%"/><stop stop-color="#6371FC" offset="74.88%"/><stop stop-color="#4A74FF" offset="96.37%"/><stop stop-color="#4575FF" offset="100%"/></linearGradient></defs><g fill="none" fill-rule="evenodd"><rect fill="#FFF" width="60" height="60" rx="12"/><path d="M19.537 2.603s-5.686.028-8.764.08L11.619 0 0 8.08l7.806 8.207.72-2.262c.13-.526.554-.885 1.084-.885l7.924.021c.533 0 .995-.366 1.11-.882l.558-2.499 7.81 8.195-11.626 8.043.006-.021 1.296-3.95H9.005a4.23 4.23 0 00-4.026 2.902L.047 40H10.8l1.937-5.914c.161-.488.62-.82 1.138-.82h5.66C28.079 33.266 35 26.402 35 17.935c0-8.468-6.922-15.332-15.463-15.332z" transform="translate(12 10)" fill="url(#prefix__a)" fill-rule="nonzero"/></g></svg>