<svg width="60" height="60" xmlns="http://www.w3.org/2000/svg"><defs><radialGradient cx="50%" cy="50%" fx="50%" fy="50%" r="59.302%" id="prefix__a"><stop stop-color="#F0C0BF" offset="0%"/><stop stop-color="#EC6F6F" offset="100%"/></radialGradient></defs><g fill="none" fill-rule="evenodd"><rect fill="#FFF" width="60" height="60" rx="12"/><g transform="translate(8 8)" fill-rule="nonzero"><circle fill="url(#prefix__a)" cx="22" cy="22" r="22"/><g fill="#1F1C1C"><path d="M22.186 18.015c-.467-.433-1.392-1.029-2.998-1.021-1.607.008-1.344.85-1.344.85s-.033.688 1.016.71c1.049.02 2.174.063 3.086.411.912.348.708-.519.24-.95zM18.39 19.585c-.096.06-.12.226-.009.247.634.118 1.638.332 2.757.148.106-.017.09-.165.013-.24-.397-.396-1.463-.95-2.76-.155z"/><path d="M31.586 30.644a.136.136 0 00-.242.036c-.653 1.975-1.187 1.491-1.434 1.066a1.814 1.814 0 01-.19-.48c-.623-2.523-.053-4.847-.053-4.847.34 1.074 1.228 1.392 1.684 1.485a.137.137 0 00.14-.054.143.143 0 00.01-.152c-1.745-3.482-.713-4.957-.713-4.957.3.34.795.37 1.108.352a.14.14 0 00.12-.087.146.146 0 00-.024-.15c-1.265-1.42-1.361-1.903-1.41-4.31-.028-1.334-.488-2.036-.916-2.401a3.65 3.65 0 01-1.095-1.564c-1.707-4.883-4.9-5.528-7.863-5.345-3.679.227-5.637 3.093-6.567 4.52-.983 1.51-1.75 3.742-1.698 4.426.052.683.67.576.67 1.365 0 .79-1.198 1.447-.727 3.667.208.978 1.051 1.71.672 3.945-.678 4.016 2.346 8.895 3.1 9.623.091.088.252.017.235-.11-.118-.896.055-2.14.055-2.14 1.515 3.306 5.754 2.693 7.081 2.41a.142.142 0 00.096-.204.14.14 0 00-.059-.061c-1.34-.725-1.647-2.197-1.647-2.197 1.334.643 2.189.535 2.6.397a.14.14 0 00.095-.117.143.143 0 00-.064-.138c-.402-.256-1.014-1.316-1.477-2.354a2.532 2.532 0 01.356-2.63c.542-.658 1.253-1.577 2.062-2.554.169-.205.404-.004.493.218 1.181 3.01 2.718 5.28 3.777 5.905.768.482 1.609.57 1.987.266 1.042-.837.216-2.28-.162-2.829zM18.8 27.843c-1.267.077-.978-1.598-1.909-1.557-.996.045-.698 1.323-1.366 1.4-.669.079-.591-1.876-.122-2.103.74-.356 1.606-.442 2.299-.417.821.029 1.606-.004 1.974.8.436.949.39 1.801-.876 1.877zm8.012-11.977c-1.685 1.019-1.784 1.523-2.025 3.314-.053.394-.107.855.07 1.115.4.588 1.16 1.024.951 2.017-.497 2.363-1.808 5.133-3.566 5.999-.212.104-.455-.107-.504-.34-.196-.937-.663-2.64-.789-3.195-.626-3.185-3.61-3.229-3.694-2.62-.025.181.605.42 1.004.552.367.124.38.656.014.782a1 1 0 01-.296.049c-.738-.052-1.673.007-2.095.038a.562.562 0 01-.393-.121.581.581 0 01-.211-.359c-.165-.975.126-1.324.479-2.25.175-.46.4-1.39.478-1.866.04-.256.023-.563-.003-.793a5.788 5.788 0 01-.038-.82c.026-.883.112-1.604.773-1.604 1.19 0 3.71.003 4.108-.592.419-.624-1.916-.02-4.425-.102a.2.2 0 01-.132-.055.208.208 0 01-.063-.13c0-.016-.003-.032-.004-.047a.33.33 0 01.187-.325.315.315 0 01.127-.029c1.34-.017 2.36-.111 2.628-.509.272-.406-1.082-.224-2.617-.21-.196 0-.359-.002-.349-.202v-.007a.326.326 0 01.092-.21.315.315 0 01.206-.095c.903-.06 1.288-.13 1.326-.424.038-.294-.093-.264-1.092-.206-.217.012-.155-.155-.031-.338.311-.467 1.705-1.814 4.788-1.716 5.282.171 5.115 3.979 5.277 4.904a.388.388 0 01-.181.395z"/></g></g></g></svg>