<svg width="60" height="60" xmlns="http://www.w3.org/2000/svg"><g fill="none" fill-rule="evenodd"><rect fill="#000" width="60" height="60" rx="12"/><path d="M48 13.8a1.8 1.8 0 00-1.8-1.8H19.133c-1.182 0-2.217.172-3.104.515-.887.37-1.627.857-2.218 1.464a6.11 6.11 0 00-1.367 2.138A7.4 7.4 0 0012 18.651v3.985a3.764 3.764 0 003.764 3.764H37.2l-10.8-7.2h19.8a1.8 1.8 0 001.8-1.8v-3.6zM12 46.2a1.8 1.8 0 001.8 1.8h27.067c1.182 0 2.217-.172 3.104-.515.887-.37 1.627-.858 2.218-1.464a6.111 6.111 0 001.367-2.138A7.4 7.4 0 0048 41.349v-3.985a3.764 3.764 0 00-3.764-3.764H22.8l10.8 7.2H13.8a1.8 1.8 0 00-1.8 1.8v3.6z" fill="#6764FB"/></g></svg>