<svg width="60" height="60" xmlns="http://www.w3.org/2000/svg"><defs><linearGradient x1="12.858%" y1="98.05%" x2="87.142%" y2="1.951%" id="prefix__a"><stop stop-color="#E02D6E" offset="1%"/><stop stop-color="#F5974C" offset="48%"/><stop stop-color="#FFCD3A" offset="74%"/><stop stop-color="#FFCD3A" offset="100%"/></linearGradient></defs><g fill="none" fill-rule="evenodd"><rect fill="#FFF" width="60" height="60" rx="12"/><path d="M7.061 28.212a1.405 1.405 0 011.037-.462h32.176a.711.711 0 01.644.429.72.72 0 01-.122.766l-6.857 7.593a1.405 1.405 0 01-1.037.462H.726a.713.713 0 01-.644-.429.72.72 0 01.121-.766l6.858-7.593zm33.735-6.305a.719.719 0 01-.522 1.218H8.098a1.401 1.401 0 01-1.037-.463l-6.858-7.57a.718.718 0 01.523-1.217h32.176a1.4 1.4 0 011.037.463l6.857 7.57zM7.061.463A1.406 1.406 0 018.098 0h32.176a.712.712 0 01.644.429.72.72 0 01-.122.766L33.94 8.788a1.406 1.406 0 01-1.037.462H.726a.712.712 0 01-.644-.429.72.72 0 01.121-.766L7.061.463z" transform="translate(10 12)" fill="url(#prefix__a)"/></g></svg>