<svg width="60" height="60" xmlns="http://www.w3.org/2000/svg"><g fill="none" fill-rule="evenodd"><rect fill="#FFF" width="60" height="60" rx="12"/><path d="M47.642 25.164s0 0 0 0c.024-.088-.007-.144.005-.188 0 0 0 0 0 0s0 0 0 0c-.031-.056-.02-.1-.05-.156l-.031-.056-.043-.011-12.45-12.828c-.043-.012-.074-.068-.074-.068s0 0 0 0l-.043-.011-.043-.011-.085-.023-.043-.012-.043-.011s0 0 0 0c-.043-.012-.098.02-.098.02l-17.196 4.885-.042-.011-.055.032c-.055.033-.11.066-.121.11 0 0 0 0 0 0s0 0 0 0c-.055.033-.067.077-.079.122l-.012.044-.012.044-4.745 17.712-.036.133s0 0 0 0l-.012.044-.012.045s-.012.044.031.055l.031.056s-.012.044.031.056c0 0 0 0 0 0l.062.111 12.45 12.828.043.012.043.011c.043.012.074.067.116.079.043.011.086.023.14-.01l.044.012.043.011 17.196-4.884c.042.011.054-.033.109-.066 0 0 0 0 0 0l.055-.033.054-.032.055-.033.012-.044.012-.045s0 0 0 0l.035-.133 4.758-17.756c-.012.044-.012.044 0 0zm-1.297-.3l-7.404 2.098-3.365-13.146 10.77 11.048zm-11.83-11.713l3.48 13.747-13.367-3.582 9.887-10.165zm-1.252.045l-9.487 9.702-5.363-5.518 14.85-4.184zM17.77 18.062l5.363 5.518-9.445 9.714 4.082-15.232zm5.773 6.388l3.48 13.746-13.367-3.582 9.887-10.164zm1.501 22.328L14.276 35.73l12.81 3.432-2.04 7.616zm2.825-8.83l-3.48-13.746 13.324 3.57-9.844 10.176zm-1.968 9.06l2.04-7.617 12.81 3.433-14.85 4.184zm2.578-8.422l9.887-10.165 3.48 13.747-13.367-3.582zm13.998 2.422l-3.322-13.134 7.404-2.098-4.082 15.232h0z" fill="#000" fill-rule="nonzero" stroke="#000" stroke-width="1.1"/></g></svg>