<svg width="60" height="60" xmlns="http://www.w3.org/2000/svg"><g fill="none" fill-rule="evenodd"><rect fill="#FFF" width="60" height="60" rx="12"/><g fill="#231F20" fill-rule="nonzero"><path d="M29.852 48.837L12.72 41.912c-.576-.282-.72-.282-.72-.989V18.596c0-.566.144-.707.72-.99l17.132-6.5c.576-.141.72-.141 1.296 0l17.132 6.5c.576.283.72.424.72.99v22.469c0 .565-.144.706-.72.989l-17.132 6.783c-.576.141-.72.282-1.296 0zM30.428 47l14.973-5.794-14.973-5.37-14.973 5.229L30.428 47zM14.016 39.65l13.533-4.946-2.448-.989c-.144-.141-.288-.282-.288-.424v-6.924c0-.283.144-.424.288-.424l2.448-.99-13.533-5.087v19.784zm32.824 0V20.01l-13.533 4.946 2.448.989c.144.141.288.283.288.424v6.924c0 .142-.144.424-.288.424l-2.448.99L46.84 39.65zm-16.412-6.076l3.6-1.413v-4.946l-3.6-1.413-3.6 1.413v4.946l3.6 1.413zm0-9.75l14.973-5.37-14.973-5.653-14.973 5.652 14.973 5.37z"/><path d="M47.597 17.806l-16.944-6.664c-.142 0-.427-.142-.57-.142-.142 0-.427 0-.57.142L12.57 17.806c-.285 0-.57.425-.57.85v22.545c0 .426.285.71.57.851l16.801 6.806c.143 0 .428.142.57.142.142 0 .427 0 .57-.142l16.801-6.806c.285-.142.57-.425.57-.85V18.656c.285-.426 0-.851-.285-.851zm-17.514-5.105l15.236 5.814-15.236 5.53-15.235-5.53L30.083 12.7zm0 13.045l3.703 1.56v5.104l-3.703 1.56-3.702-1.56v-5.104l3.702-1.56zM13.71 19.791l13.954 5.246-2.848 1.135c-.142 0-.285.141-.285.283v6.948c0 .142.143.284.143.284l2.847 1.134-13.811 5.104V19.791zm16.374 27.508L14.848 41.2l15.235-5.53 15.236 5.53L30.083 47.3zm16.375-7.374l-13.954-5.104 2.848-1.134c.142 0 .142-.142.142-.284v-7.09c0-.141-.142-.283-.142-.283l-2.848-1.134 13.954-5.247v20.276z"/></g></g></svg>