<svg width="60" height="60" xmlns="http://www.w3.org/2000/svg"><g fill="none" fill-rule="evenodd"><rect fill="#FFF" width="60" height="60" rx="12"/><path d="M11.71 27.81l8.008-8.009L29.91 29.992l10.274-10.274 8.091 8.092a3.087 3.087 0 010 4.365l-8.077 8.078-10.26-10.26-10.205 10.204-8.022-8.022a3.087 3.087 0 010-4.365zM25.825 9.726a5.893 5.893 0 018.334 0l16.1 16.1a5.893 5.893 0 010 8.333l-16.1 16.1a5.893 5.893 0 01-8.334 0l-16.099-16.1a5.893 5.893 0 010-8.334l16.1-16.099z" fill="#000"/></g></svg>