<svg width="60" height="60" xmlns="http://www.w3.org/2000/svg"><defs><linearGradient x1="4.36%" y1="72.062%" x2="96.324%" y2="70.733%" id="prefix__a"><stop stop-color="#5784C2" offset="0%"/><stop stop-color="#1BE6B3" offset="100%"/></linearGradient><linearGradient x1="50.975%" y1="-4.361%" x2="50.975%" y2="104.385%" id="prefix__b"><stop stop-color="#D141E9" offset="0%"/><stop stop-color="#5F7DC1" offset="49.822%"/><stop stop-color="#2BD9B9" offset="100%"/></linearGradient><linearGradient x1="32.403%" y1="-2.99%" x2="72.406%" y2="98.758%" id="prefix__c"><stop stop-color="#D141E9" offset="0%"/><stop stop-color="#5F7DC1" offset="49.822%"/><stop stop-color="#2BD9B9" offset="100%"/></linearGradient><linearGradient x1="67.82%" y1="-2.958%" x2="27.763%" y2="98.806%" id="prefix__d"><stop stop-color="#D141E9" offset="0%"/><stop stop-color="#5F7DC1" offset="49.822%"/><stop stop-color="#2BD9B9" offset="100%"/></linearGradient></defs><g fill="none" fill-rule="evenodd"><rect fill="#FFF" width="60" height="60" rx="12"/><g opacity=".45"><path d="M14.733 31.395l-.707-.32v9.056c-3.083-5.655-9.358-8.048-13.984-8.048 0 11.698 9.41 15.849 15.849 15.849s15.849-4.15 15.849-15.849c-4.627 0-10.903 2.394-13.985 8.05V31.08l-.552.273a2.893 2.893 0 01-2.47.043zm1.159 16.385h-.002a29.19 29.19 0 01.002 0z" fill="url(#prefix__a)" transform="translate(14 6)"/><path d="M17.914 1.12c7.899 10.606 4.98 22.329-.039 29.436-1.015 1.438-2.962 1.44-3.998.019-5.085-6.97-8.505-18.325-.031-29.466 1.063-1.397 3.019-1.398 4.068.011z" fill="url(#prefix__b)" fill-rule="nonzero" transform="translate(14 6)"/><path d="M4.853 3.817c11.708 4.96 14.561 16.72 13.472 25.573-.214 1.738-1.935 2.732-3.54 2.032C7.167 28.1-.99 20.092 1.24 5.862c.27-1.727 2-2.728 3.613-2.045z" fill="url(#prefix__c)" fill-rule="nonzero" transform="translate(14 6)"/><path d="M30.57 5.896c1.981 13.455-5.916 22.05-13.54 25.53-1.594.729-3.316-.263-3.555-1.997-1.207-8.772 1.038-20.487 13.494-25.597 1.619-.665 3.346.333 3.601 2.064z" fill="url(#prefix__d)" fill-rule="nonzero" transform="translate(14 6)"/></g></g></svg>