<svg width="60" height="60" xmlns="http://www.w3.org/2000/svg"><g fill="none" fill-rule="evenodd"><rect fill="#FFF" width="60" height="60" rx="12"/><path d="M14.812 42.353C12.31 40 11 36.588 11 32.235V16h10.006v15.882c0 2.118.357 3.765 1.19 4.706.834.941 1.906 1.412 3.336 1.412s2.62-.47 3.335-1.412c.834-.94 1.191-2.588 1.191-4.706V16h9.887v16.118c0 4.353-1.31 7.764-3.812 10.235-2.62 2.47-6.075 3.647-10.72 3.647-4.527 0-8.1-1.176-10.601-3.647zm33.47-23.412c1.073 0 1.668.353 1.906.706.358.353.715.706.715 1.765s-.357 1.53-.715 1.764c-.357.353-.833.706-1.905.706s-1.549-.353-1.906-.706c-.358-.352-.715-.823-.715-1.764 0-.941.357-1.412.715-1.765.357-.235.834-.706 1.906-.706zm0-2.941c-1.548 0-2.858.588-3.93 1.53-1.072.94-1.549 2.235-1.549 3.882 0 1.647.477 2.94 1.549 3.882 1.072 1.059 2.382 1.53 4.05 1.53 1.667 0 2.978-.471 4.05-1.53C53.524 24.235 54 22.941 54 21.412c0-1.53-.476-2.941-1.548-3.883C51.26 16.59 49.95 16 48.282 16z" fill="#263237" fill-rule="nonzero"/></g></svg>