<svg width="60" height="60" xmlns="http://www.w3.org/2000/svg"><g fill="none" fill-rule="evenodd"><rect fill="#FFF" width="60" height="60" rx="12"/><path d="M28.838 8.38a2.825 2.825 0 012.828 0l16.422 9.572a2.84 2.84 0 011.412 2.47v19.15a2.86 2.86 0 01-1.376 2.473l-16.442 9.57a2.785 2.785 0 01-2.827 0l-16.443-9.57A2.86 2.86 0 0111 39.572v-19.15a2.84 2.84 0 011.396-2.47L28.838 8.38zM23.89 18.12l-7.055 4.143a.681.681 0 00-.334.587v15.285c0 .273.143.527.378.663l12.915 7.562a.987.987 0 001.009 0l6.654-3.877a.262.262 0 000-.45L24.45 34.438a.339.339 0 01-.163-.31V18.352a.266.266 0 00-.133-.233.26.26 0 00-.265.003z" fill="#000" fill-rule="nonzero"/></g></svg>